<?xml version="1.0" encoding="utf-8"?>
<!-- Generator: Adobe Illustrator 25.2.0, SVG Export Plug-In . SVG Version: 6.00 Build 0)  -->
<svg version="1.1" xmlns="http://www.w3.org/2000/svg" xmlns:xlink="http://www.w3.org/1999/xlink" x="0px" y="0px"
	 viewBox="0 0 500 500" style="enable-background:new 0 0 500 500;" xml:space="preserve">
<style type="text/css">
	.st0{fill:#5C009E;}
	.st1{opacity:0.7;fill:#FFFFFF;}
	.st2{fill:none;stroke:#263238;stroke-linecap:round;stroke-linejoin:round;stroke-miterlimit:10;}
	.st3{fill:#5C009E;stroke:#263238;stroke-linecap:round;stroke-linejoin:round;stroke-miterlimit:10;}
	.st4{fill:none;stroke:#263238;stroke-width:0.5;stroke-linecap:round;stroke-linejoin:round;stroke-miterlimit:10;}
	.st5{fill:#FFFFFF;stroke:#263238;stroke-linecap:round;stroke-linejoin:round;stroke-miterlimit:10;}
	.st6{fill:none;stroke:#263238;stroke-width:2;stroke-miterlimit:10;}
	.st7{fill:#5C009E;stroke:#263238;stroke-miterlimit:10;}
	.st8{fill:none;stroke:#263238;stroke-width:0.5;stroke-miterlimit:10;}
	.st9{fill:#263238;stroke:#263238;stroke-miterlimit:10;}
	.st10{fill:#7D7D7D;stroke:#263238;stroke-linecap:round;stroke-linejoin:round;stroke-miterlimit:10;}
	.st11{fill:#263238;}
	.st12{fill:#595959;stroke:#263238;stroke-linecap:round;stroke-linejoin:round;stroke-miterlimit:10;}
	.st13{fill:#A8A8A8;stroke:#263238;stroke-linecap:round;stroke-linejoin:round;stroke-miterlimit:10;}
	.st14{fill:#263238;stroke:#263238;stroke-linecap:round;stroke-linejoin:round;stroke-miterlimit:10;}
	.st15{fill:#9C9C9C;stroke:#263238;stroke-linecap:round;stroke-linejoin:round;stroke-miterlimit:10;}
</style>
<g id="Background_Simple">
	<g>
		<path class="st0" d="M461,208.15c0,0-64-156.12-181-186.26S113.93,83.93,96,147.86C78.07,211.8,12,296.44,18,354.58
			c5.7,55.26,54.13,81.39,99.36,92.61c57.49,14.25,122.82,15.33,180.52,3.45c13.73-2.83,27.2-6.62,40.57-10.98
			c27.11-8.84,53.72-15.69,81.19-23.02c52.24-13.94,72.94-70.05,67.05-123.74C483.36,262.69,472.29,235.65,461,208.15z"/>
		<path class="st1" d="M461,208.15c0,0-64-156.12-181-186.26S113.93,83.93,96,147.86C78.07,211.8,12,296.44,18,354.58
			c5.7,55.26,54.13,81.39,99.36,92.61c57.49,14.25,122.82,15.33,180.52,3.45c13.73-2.83,27.2-6.62,40.57-10.98
			c27.11-8.84,53.72-15.69,81.19-23.02c52.24-13.94,72.94-70.05,67.05-123.74C483.36,262.69,472.29,235.65,461,208.15z"/>
	</g>
</g>
<g id="Window">
	<g>
		<rect x="240.25" y="37.21" class="st2" width="185.5" height="256.84"/>
		<line class="st2" x1="333" y1="37.36" x2="333" y2="294.95"/>
		<line class="st2" x1="425.91" y1="166.16" x2="240.1" y2="166.16"/>
		<line class="st2" x1="425.91" y1="101.66" x2="240.1" y2="101.66"/>
		<line class="st2" x1="425.91" y1="230.66" x2="240.1" y2="230.66"/>
		<g>
			<line class="st2" x1="392.1" y1="131.43" x2="374.02" y2="148.81"/>
			<line class="st2" x1="418.99" y1="105.57" x2="397.39" y2="126.34"/>
			<line class="st2" x1="372.71" y1="140.53" x2="366.97" y2="146.05"/>
			<line class="st2" x1="397.37" y1="116.81" x2="376.66" y2="136.72"/>
		</g>
		<g>
			<line class="st2" x1="291.78" y1="72.62" x2="273.7" y2="90"/>
			<line class="st2" x1="318.67" y1="46.76" x2="297.07" y2="67.54"/>
			<line class="st2" x1="272.39" y1="81.72" x2="266.65" y2="87.24"/>
			<line class="st2" x1="297.05" y1="58.01" x2="276.34" y2="77.91"/>
		</g>
		<g>
			<line class="st2" x1="387.77" y1="199.75" x2="369.7" y2="217.13"/>
			<line class="st2" x1="414.67" y1="173.89" x2="393.06" y2="194.67"/>
			<line class="st2" x1="368.38" y1="208.85" x2="362.64" y2="214.37"/>
			<line class="st2" x1="393.05" y1="185.14" x2="372.34" y2="205.04"/>
		</g>
	</g>
</g>
<g id="Plants_2">
	<g>
		<g>
			<path class="st3" d="M395.93,269.85l-0.78-6.68c0,0-3.55,0.21-4.92-2.88c-0.83-1.87-1.67-5.66-0.45-7.53
				c1.66-2.54,5.33-2.2,6.39,0.85c0.95,2.72,1.41,3.88,1.41,3.88c-0.23-3.93-3.19-19.76,5.72-17.35c3.62,0.98,4.61,4.48,4.77,7.24
				c0.16,2.76-0.22,9.91-0.22,9.91s2.39,0.26,2.56-3.71c0.17-3.97,4.02-5.77,5.71-3.89c1.69,1.88,2.48,8.56,0.62,10.65
				c-1.86,2.09-7.75,2.82-7.75,2.82l0.39,6.71L395.93,269.85z"/>
			<path class="st4" d="M401.05,241.23c0,0-1.47,1.34-1.07,5.89c0.4,4.55,0.4,12.72,0.4,12.72"/>
			<path class="st4" d="M404.94,244.31c0,0,1.74-0.27,1.21,3.88c-0.54,4.15,0,10.45,0,10.45"/>
			<path class="st4" d="M392.35,253.15c0,0-1.74,0.4-0.94,3.21c0.8,2.81,1.07,4.96,2.95,5.36c1.88,0.4,2.54,0.4,2.54,0.4l0.27,2.95"
				/>
			<path class="st4" d="M409.22,261.59c0,0,5.49,0.13,6.56-2.14c1.07-2.28,0.4-6.16,0.4-6.16"/>
			<path class="st4" d="M394.62,253.89c0,0.26-0.21,0.47-0.47,0.47c-0.26,0-0.47-0.21-0.47-0.47c0-0.26,0.21-0.47,0.47-0.47
				C394.41,253.42,394.62,253.63,394.62,253.89z"/>
			<circle class="st4" cx="395.76" cy="259.31" r="0.47"/>
			<circle class="st4" cx="393.42" cy="257.1" r="0.47"/>
			<circle class="st4" cx="402.93" cy="251.55" r="0.47"/>
			<circle class="st4" cx="398.51" cy="246.99" r="0.47"/>
			<path class="st4" d="M404.94,263.33c0,0.26-0.21,0.47-0.47,0.47c-0.26,0-0.47-0.21-0.47-0.47c0-0.26,0.21-0.47,0.47-0.47
				C404.73,262.86,404.94,263.07,404.94,263.33z"/>
			<path class="st4" d="M399.85,262.66c0,0.26-0.21,0.47-0.47,0.47c-0.26,0-0.47-0.21-0.47-0.47c0-0.26,0.21-0.47,0.47-0.47
				C399.64,262.19,399.85,262.4,399.85,262.66z"/>
			<circle class="st4" cx="403.73" cy="242.71" r="0.47"/>
			<path class="st4" d="M413.71,251.61c0,0.26-0.21,0.47-0.47,0.47s-0.47-0.21-0.47-0.47s0.21-0.47,0.47-0.47
				S413.71,251.35,413.71,251.61z"/>
			<circle class="st4" cx="412.03" cy="257.98" r="0.47"/>
			<circle class="st4" cx="403.73" cy="257.84" r="0.47"/>
		</g>
		<polygon class="st5" points="414.4,265.52 390.3,265.52 392.71,285.28 411.99,285.28 		"/>
	</g>
</g>
<g id="Plants_1">
	<g>
		<g>
			<line class="st6" x1="55.65" y1="229.09" x2="74.1" y2="405.82"/>
			<g>
				<g>
					<line class="st6" x1="71.12" y1="372" x2="62.76" y2="363.17"/>
					<path class="st7" d="M65.3,365.81c0,0,0.24-3.91-3.33-7.09c-2.15-1.92-13.44-6.67-14.51-2.69
						C46.29,360.36,57.86,368.86,65.3,365.81z"/>
					<line class="st8" x1="65.3" y1="365.81" x2="54.55" y2="359.11"/>
				</g>
				<g>
					<line class="st6" x1="73.22" y1="392.1" x2="64.86" y2="383.27"/>
					<path class="st7" d="M67.4,385.91c0,0,0.24-3.91-3.33-7.09c-2.15-1.92-13.44-6.67-14.51-2.69
						C48.39,380.46,59.95,388.95,67.4,385.91z"/>
					<line class="st8" x1="67.4" y1="385.91" x2="56.65" y2="379.21"/>
				</g>
				<g>
					<line class="st6" x1="66" y1="322.95" x2="57.64" y2="314.12"/>
					<path class="st7" d="M60.18,316.77c0,0,0.24-3.91-3.33-7.09c-2.15-1.92-13.44-6.67-14.51-2.69
						C41.18,311.31,52.74,319.81,60.18,316.77z"/>
					<line class="st8" x1="60.18" y1="316.77" x2="49.43" y2="310.07"/>
				</g>
				<g>
					<line class="st6" x1="68.1" y1="343.05" x2="59.74" y2="334.22"/>
					<path class="st7" d="M62.28,336.87c0,0,0.24-3.91-3.33-7.09c-2.15-1.92-13.44-6.67-14.51-2.69
						C43.27,331.41,54.83,339.91,62.28,336.87z"/>
					<line class="st8" x1="62.28" y1="336.87" x2="51.53" y2="330.17"/>
				</g>
				<g>
					<line class="st6" x1="62.6" y1="290.3" x2="54.24" y2="281.47"/>
					<path class="st7" d="M56.78,284.12c0,0,0.24-3.91-3.33-7.09c-2.15-1.92-13.44-6.67-14.51-2.69
						C37.77,278.66,49.33,287.16,56.78,284.12z"/>
					<line class="st8" x1="56.78" y1="284.12" x2="46.02" y2="277.42"/>
				</g>
				<g>
					<line class="st6" x1="59.17" y1="257.51" x2="50.81" y2="248.68"/>
					<path class="st7" d="M53.35,251.32c0,0,0.24-3.91-3.33-7.09c-2.15-1.92-13.44-6.67-14.51-2.69
						C34.35,245.87,45.91,254.36,53.35,251.32z"/>
					<line class="st8" x1="53.35" y1="251.32" x2="42.6" y2="244.62"/>
				</g>
				<g>
					<line class="st6" x1="69.72" y1="360.11" x2="76.08" y2="349.74"/>
					<path class="st7" d="M74.14,352.85c0,0-1.04-3.77,1.79-7.63c1.7-2.32,11.78-9.3,13.65-5.63
						C91.61,343.59,82.05,354.29,74.14,352.85z"/>
					<line class="st8" x1="74.14" y1="352.85" x2="83.82" y2="343.6"/>
				</g>
				<g>
					<line class="st6" x1="64.2" y1="307.21" x2="70.56" y2="296.85"/>
					<path class="st7" d="M68.62,299.96c0,0-1.04-3.77,1.79-7.63c1.7-2.32,11.78-9.3,13.65-5.63
						C86.09,290.7,76.53,301.4,68.62,299.96z"/>
					<line class="st8" x1="68.62" y1="299.96" x2="78.3" y2="290.7"/>
				</g>
				<g>
					<line class="st6" x1="61.77" y1="283.97" x2="68.13" y2="273.6"/>
					<path class="st7" d="M66.19,276.72c0,0-1.04-3.77,1.79-7.63c1.7-2.32,11.78-9.3,13.65-5.63
						C83.66,267.45,74.1,278.15,66.19,276.72z"/>
					<line class="st8" x1="66.19" y1="276.72" x2="75.87" y2="267.46"/>
				</g>
				<g>
					<line class="st6" x1="58.22" y1="249.89" x2="64.57" y2="239.53"/>
					<path class="st7" d="M62.63,242.64c0,0-1.04-3.77,1.79-7.63c1.7-2.32,11.78-9.3,13.65-5.63
						C80.11,233.38,70.55,244.08,62.63,242.64z"/>
					<line class="st8" x1="62.63" y1="242.64" x2="72.32" y2="233.38"/>
					<path class="st7" d="M55.5,228.11c0,0-1.04-3.77,1.79-7.63c1.7-2.32,11.78-9.3,13.65-5.63
						C72.97,218.84,63.41,229.54,55.5,228.11z"/>
					<line class="st8" x1="55.5" y1="228.11" x2="65.18" y2="218.85"/>
					<path class="st7" d="M56.06,228.51c0,0-3.86,0.64-7.4-2.58c-2.13-1.94-8.01-12.69-4.17-14.16
						C48.68,210.16,58.32,220.79,56.06,228.51z"/>
					<line class="st8" x1="56.06" y1="228.51" x2="47.87" y2="217.91"/>
				</g>
			</g>
		</g>
		<g>
			<line class="st6" x1="104.3" y1="253.43" x2="85.96" y2="430.17"/>
			<g>
				<g>
					<line class="st6" x1="90.01" y1="396.46" x2="83.65" y2="386.1"/>
					<path class="st7" d="M85.59,389.21c0,0,1.04-3.77-1.8-7.63c-1.71-2.32-11.78-9.29-13.65-5.62
						C68.11,379.96,77.68,390.65,85.59,389.21z"/>
					<line class="st8" x1="85.59" y1="389.21" x2="76.45" y2="380.44"/>
				</g>
				<g>
					<line class="st6" x1="95.1" y1="347.41" x2="88.74" y2="337.05"/>
					<path class="st7" d="M90.68,340.16c0,0,1.04-3.77-1.8-7.63c-1.71-2.32-11.78-9.29-13.65-5.62
						C73.2,330.91,82.77,341.6,90.68,340.16z"/>
					<line class="st8" x1="90.68" y1="340.16" x2="81.54" y2="331.39"/>
				</g>
				<g>
					<line class="st6" x1="93.02" y1="367.51" x2="86.65" y2="357.15"/>
					<path class="st7" d="M88.59,360.26c0,0,1.04-3.77-1.8-7.63c-1.71-2.32-11.78-9.29-13.65-5.62
						C71.12,351.01,80.68,361.7,88.59,360.26z"/>
					<line class="st8" x1="88.59" y1="360.26" x2="79.45" y2="351.49"/>
				</g>
				<g>
					<line class="st6" x1="98.49" y1="314.76" x2="92.13" y2="304.4"/>
					<path class="st7" d="M94.07,307.51c0,0,1.04-3.77-1.8-7.63c-1.71-2.32-11.78-9.29-13.65-5.62
						C76.59,298.25,86.16,308.95,94.07,307.51z"/>
					<line class="st8" x1="94.07" y1="307.51" x2="84.93" y2="298.74"/>
				</g>
				<g>
					<line class="st6" x1="101.89" y1="281.96" x2="95.53" y2="271.6"/>
					<path class="st7" d="M97.47,274.71c0,0,1.04-3.77-1.8-7.63c-1.71-2.32-11.78-9.29-13.65-5.62
						C79.99,265.46,89.56,276.16,97.47,274.71z"/>
					<line class="st8" x1="97.47" y1="274.71" x2="88.33" y2="265.94"/>
				</g>
				<g>
					<line class="st6" x1="91.09" y1="384.53" x2="99.44" y2="375.7"/>
					<path class="st7" d="M96.9,378.35c0,0-0.24-3.91,3.32-7.09c2.15-1.92,13.44-6.68,14.51-2.7
						C115.91,372.88,104.35,381.38,96.9,378.35z"/>
					<line class="st8" x1="96.9" y1="378.35" x2="108.29" y2="371.28"/>
				</g>
				<g>
					<line class="st6" x1="96.58" y1="331.64" x2="104.93" y2="322.8"/>
					<path class="st7" d="M102.39,325.45c0,0-0.24-3.91,3.32-7.09c2.15-1.92,13.44-6.68,14.51-2.7
						C121.4,319.98,109.84,328.49,102.39,325.45z"/>
					<line class="st8" x1="102.39" y1="325.45" x2="113.77" y2="318.39"/>
				</g>
				<g>
					<line class="st6" x1="98.99" y1="308.39" x2="107.34" y2="299.56"/>
					<path class="st7" d="M104.81,302.2c0,0-0.24-3.91,3.32-7.09c2.15-1.92,13.44-6.68,14.51-2.7
						C123.81,296.74,112.25,305.24,104.81,302.2z"/>
					<line class="st8" x1="104.81" y1="302.2" x2="116.19" y2="295.14"/>
				</g>
				<g>
					<line class="st6" x1="102.52" y1="274.31" x2="110.88" y2="265.48"/>
					<path class="st7" d="M108.34,268.13c0,0-0.24-3.91,3.32-7.09c2.15-1.92,13.44-6.68,14.51-2.7
						C127.35,262.66,115.79,271.16,108.34,268.13z"/>
					<line class="st8" x1="108.34" y1="268.13" x2="119.72" y2="261.06"/>
					<path class="st7" d="M104.35,252.43c0,0-0.24-3.91,3.32-7.09c2.15-1.92,13.44-6.68,14.51-2.7
						C123.35,246.97,111.8,255.47,104.35,252.43z"/>
					<line class="st8" x1="104.35" y1="252.43" x2="115.73" y2="245.37"/>
					<path class="st7" d="M104.82,252.94c0,0-3.91-0.17-6.71-4.05c-1.68-2.33-5.23-14.06-1.16-14.71
						C101.37,233.47,108.62,245.85,104.82,252.94z"/>
					<line class="st8" x1="104.82" y1="252.94" x2="98.99" y2="240.88"/>
				</g>
			</g>
		</g>
		<line class="st6" x1="83.28" y1="181.46" x2="83.28" y2="404.96"/>
		<g>
			<g>
				<line class="st6" x1="83.46" y1="371.36" x2="76.06" y2="361.7"/>
				<path class="st7" d="M78.31,364.6c0,0,0.64-3.86-2.57-7.4c-1.94-2.13-12.68-8.03-14.16-4.18
					C59.97,357.2,70.59,366.85,78.31,364.6z"/>
				<line class="st8" x1="78.31" y1="364.6" x2="68.31" y2="356.82"/>
			</g>
			<g>
				<line class="st6" x1="83.46" y1="329.35" x2="76.06" y2="319.7"/>
				<path class="st7" d="M78.31,322.6c0,0,0.64-3.86-2.57-7.4c-1.94-2.13-12.68-8.03-14.16-4.18
					C59.97,315.2,70.59,324.85,78.31,322.6z"/>
				<line class="st8" x1="78.31" y1="322.6" x2="68.31" y2="314.82"/>
			</g>
			<g>
				<line class="st6" x1="83.46" y1="280.04" x2="76.06" y2="270.39"/>
				<path class="st7" d="M78.31,273.28c0,0,0.64-3.86-2.57-7.4c-1.94-2.13-12.68-8.03-14.16-4.18
					C59.97,265.88,70.59,275.53,78.31,273.28z"/>
				<line class="st8" x1="78.31" y1="273.28" x2="68.31" y2="265.5"/>
			</g>
			<g>
				<line class="st6" x1="83.46" y1="247.21" x2="76.06" y2="237.56"/>
				<path class="st7" d="M78.31,240.45c0,0,0.64-3.86-2.57-7.4c-1.94-2.13-12.68-8.03-14.16-4.18
					C59.97,233.06,70.59,242.71,78.31,240.45z"/>
				<line class="st8" x1="78.31" y1="240.45" x2="68.31" y2="232.67"/>
			</g>
			<g>
				<line class="st6" x1="83.46" y1="214.24" x2="76.06" y2="204.59"/>
				<path class="st7" d="M78.31,207.48c0,0,0.64-3.86-2.57-7.4c-1.94-2.13-12.68-8.03-14.16-4.18
					C59.97,200.08,70.59,209.74,78.31,207.48z"/>
				<line class="st8" x1="78.31" y1="207.48" x2="68.31" y2="199.7"/>
			</g>
			<g>
				<line class="st6" x1="83.3" y1="384.18" x2="90.7" y2="374.53"/>
				<path class="st7" d="M88.44,377.42c0,0-0.64-3.86,2.57-7.4c1.94-2.13,12.68-8.03,14.16-4.18
					C106.78,370.03,96.16,379.68,88.44,377.42z"/>
				<line class="st8" x1="88.44" y1="377.42" x2="99.03" y2="369.23"/>
			</g>
			<g>
				<line class="st6" x1="83.3" y1="317.38" x2="90.7" y2="307.73"/>
				<path class="st7" d="M88.44,310.62c0,0-0.64-3.86,2.57-7.4c1.94-2.13,12.68-8.03,14.16-4.18
					C106.78,303.22,96.16,312.87,88.44,310.62z"/>
				<line class="st8" x1="88.44" y1="310.62" x2="99.03" y2="302.42"/>
			</g>
			<g>
				<line class="st6" x1="83.3" y1="284.41" x2="90.7" y2="274.76"/>
				<path class="st7" d="M88.44,277.65c0,0-0.64-3.86,2.57-7.4c1.94-2.13,12.68-8.03,14.16-4.18
					C106.78,270.25,96.16,279.9,88.44,277.65z"/>
				<line class="st8" x1="88.44" y1="277.65" x2="99.03" y2="269.45"/>
			</g>
			<g>
				<line class="st6" x1="83.3" y1="240.83" x2="90.7" y2="231.18"/>
				<path class="st7" d="M88.44,234.07c0,0-0.64-3.86,2.57-7.4c1.94-2.13,12.68-8.03,14.16-4.18
					C106.78,226.67,96.16,236.32,88.44,234.07z"/>
				<line class="st8" x1="88.44" y1="234.07" x2="99.03" y2="225.87"/>
			</g>
			<g>
				<line class="st6" x1="83.3" y1="206.57" x2="90.7" y2="196.91"/>
				<path class="st7" d="M88.44,199.81c0,0-0.64-3.86,2.57-7.4c1.94-2.13,12.68-8.03,14.16-4.18
					C106.78,192.41,96.16,202.06,88.44,199.81z"/>
				<line class="st8" x1="88.44" y1="199.81" x2="99.03" y2="191.61"/>
				<path class="st7" d="M82.85,184.61c0,0-0.64-3.86,2.57-7.4c1.94-2.13,12.68-8.03,14.16-4.18
					C101.19,177.21,90.57,186.87,82.85,184.61z"/>
				<line class="st8" x1="82.85" y1="184.61" x2="93.44" y2="176.41"/>
				<path class="st7" d="M83.37,185.07c0,0-3.91,0.24-7.09-3.34c-1.91-2.15-6.65-13.45-2.67-14.52
					C77.93,166.06,86.42,177.63,83.37,185.07z"/>
				<line class="st8" x1="83.37" y1="185.07" x2="76.33" y2="173.68"/>
			</g>
		</g>
		<polygon class="st9" points="92.48,462.93 68.81,462.93 65.85,403.15 95.44,403.15 		"/>
	</g>
</g>
<g id="Device">
	<g>
		<polygon class="st10" points="306.34,220 379.33,220 362.33,282.62 289.34,282.62 		"/>
		<polygon class="st5" points="308.43,222.33 375.98,222.33 360.25,280.29 292.7,280.29 		"/>
		<g>
			<g>
				<path class="st11" d="M324.79,262.21l4.06-15.16h1.69l-3.65,13.62h4.33l-0.41,1.54H324.79z"/>
				<path class="st11" d="M335.05,250.71c0.62-2.32,2.17-3.81,4.49-3.81c2.34,0,3.09,1.49,2.47,3.81l-2.1,7.84
					c-0.61,2.3-2.17,3.81-4.51,3.81c-2.32,0-3.06-1.52-2.45-3.81L335.05,250.71z M334.59,258.64c-0.37,1.39,0,2.19,1.21,2.19
					c1.23,0,2.01-0.8,2.38-2.19l2.15-8.01c0.37-1.36,0.02-2.19-1.21-2.19c-1.21,0-2.02,0.82-2.38,2.19L334.59,258.64z"/>
				<path class="st11" d="M350.3,250.71l-0.35,1.3h-1.6l0.37-1.39c0.37-1.36,0.04-2.19-1.19-2.19c-1.21,0-2,0.82-2.36,2.19
					l-2.15,8.01c-0.37,1.36-0.02,2.19,1.19,2.19c1.23,0,2-0.82,2.36-2.19l0.81-3.03h-1.56l0.41-1.52h3.16l-1.19,4.46
					c-0.61,2.3-2.1,3.81-4.44,3.81c-2.32,0-2.99-1.52-2.38-3.81l2.1-7.84c0.61-2.3,2.1-3.81,4.42-3.81
					C350.24,246.9,350.91,248.42,350.3,250.71z"/>
				<path class="st11" d="M351.78,250.71c0.62-2.32,2.17-3.81,4.49-3.81c2.34,0,3.09,1.49,2.47,3.81l-2.1,7.84
					c-0.61,2.3-2.17,3.81-4.51,3.81c-2.32,0-3.06-1.52-2.45-3.81L351.78,250.71z M351.32,258.64c-0.37,1.39,0,2.19,1.21,2.19
					c1.23,0,2.01-0.8,2.38-2.19l2.15-8.01c0.37-1.36,0.02-2.19-1.21-2.19c-1.21,0-2.02,0.82-2.38,2.19L351.32,258.64z"/>
			</g>
			<path class="st2" d="M326.63,247.88c-0.13-3.44-0.93-9.8-4.7-14.72c-5.45-7.1-15.33,2.55-11.16,14.64
				c0.58,1.68,1.45,3.12,2.35,4.31"/>
			<path class="st2" d="M317.05,255.91c0,0-14.41,2.19-11.38,7.48c5.26,9.18,13.98,0.75,17.67-3.54"/>
			<path class="st3" d="M323.58,243.28c1.62,4.35,1.28,8.5-0.77,9.26s-5.01-2.15-6.63-6.5c-1.62-4.35-1.28-8.5,0.77-9.26
				C318.99,236.01,321.96,238.93,323.58,243.28z"/>
			<path class="st3" d="M309.07,263.64c0.5,1.33,3.07,1.59,5.73,0.58c2.66-1.01,4.4-2.9,3.9-4.23c-0.5-1.33-3.07-1.59-5.73-0.58
				C310.31,260.41,308.56,262.31,309.07,263.64z"/>
			<path class="st2" d="M330.97,235.62c0,0,2.9,7.36-2.35,13.87c0,0,0.89-4.81-1.24-11.04"/>
		</g>
		<rect x="260.01" y="279.3" class="st10" width="102.32" height="3.33"/>
		<rect x="315.31" y="279.3" class="st12" width="47.02" height="3.33"/>
	</g>
</g>
<g id="Table">
	<g>
		<g>
			<rect x="227.28" y="287.93" class="st5" width="5.5" height="174.61"/>
			
				<rect x="222.59" y="287.93" transform="matrix(-1 -1.224647e-16 1.224647e-16 -1 449.8712 750.472)" class="st13" width="4.7" height="174.61"/>
		</g>
		<g>
			<rect x="368.18" y="379.29" class="st5" width="5.5" height="83.25"/>
			
				<rect x="363.48" y="379.29" transform="matrix(-1 -1.224647e-16 1.224647e-16 -1 731.663 841.8361)" class="st13" width="4.7" height="83.25"/>
		</g>
		<g>
			<g>
				<rect x="427.07" y="379.29" class="st5" width="5.5" height="83.25"/>
				
					<rect x="422.38" y="379.29" transform="matrix(-1 -1.224647e-16 1.224647e-16 -1 849.448 841.8361)" class="st13" width="4.7" height="83.25"/>
			</g>
			<g>
				
					<rect x="313.67" y="289.63" transform="matrix(-1 -1.224647e-16 1.224647e-16 -1 680.9909 673.6739)" class="st13" width="53.66" height="94.42"/>
				<rect x="367.32" y="289.63" class="st5" width="70.71" height="94.42"/>
				<polygon class="st14" points="367.32,289.63 313.67,289.63 313.67,294.23 367.32,294.23 438.03,294.23 438.03,289.63 				"/>
				<g>
					<rect x="318.24" y="295.04" class="st5" width="45.75" height="22.04"/>
					<rect x="335.09" y="303.98" class="st11" width="12.06" height="4.16"/>
				</g>
				<g>
					<rect x="318.24" y="325.4" class="st5" width="45.75" height="22.04"/>
					<rect x="335.09" y="333.93" class="st11" width="12.06" height="4.16"/>
				</g>
				<g>
					<rect x="318.24" y="355.76" class="st5" width="45.75" height="22.04"/>
					<rect x="335.09" y="363.87" class="st11" width="12.06" height="4.16"/>
				</g>
			</g>
			<g>
				<rect x="215" y="285.48" class="st13" width="230.33" height="5.49"/>
				<rect x="375.78" y="285.48" class="st5" width="69.55" height="5.49"/>
			</g>
		</g>
	</g>
</g>
<g id="Character">
	<g>
		<g>
			<path class="st5" d="M234.53,341.36c0,0,6.86,4.75,17.04,34.1c3.39,9.77,22.39,62.39,23.39,66.06c1,3.67,3,8,6,8
				s14-14,12.67-15.67c-1.33-1.67-7.67-8.33-7.67-8.33s-3.78-42.6-4.45-54.6c-0.67-12,2.06-26.46-4.27-36.12
				c-6.33-9.67-34.33,0.33-34.33,0.33L234.53,341.36z"/>
			<g>
				<path class="st3" d="M288.96,425.52c0,0-2.67,1.33-2.33,4.33c0.33,3,3.33,7,3.33,7s-6.33,5-9.67,5.33c-3.33,0.33-7,1-7,2
					s2.67,2.67,4.33,6.33c1.67,3.67,5.33,9.33,6.33,10.67c1,1.33,1.67,2.33,5.33,1.33c3.67-1,11.67-8.33,16-11.33
					c4.33-3,17.33-5,19.67-6.67c2.33-1.67,9.67-12.33,6.33-14.33c-3.33-2-4.33,0.33-8.33,1.33s-15.67-0.33-22-1.67
					c-6.33-1.33-8.33-1.67-8.33-1.67L288.96,425.52z"/>
				<path class="st5" d="M283.42,460.43c0.22,0.32,0.4,0.58,0.54,0.76c1,1.33,1.67,2.33,5.33,1.33c3.67-1,11.67-8.33,16-11.33
					c4.33-3,17.33-5,19.67-6.67c2.33-1.67,9.67-12.33,6.33-14.33c-0.56-0.34-1.06-0.54-1.51-0.66c0.06,0.22,0.12,0.42,0.18,0.66
					c1,4-2.33,8-5.33,11s-13,2.33-24,8C292.94,453.15,286.57,457.91,283.42,460.43z"/>
			</g>
			<path class="st14" d="M283.1,392.17c-0.72-8.76-1.35-16.96-1.59-21.25c-0.67-12,2.06-26.46-4.27-36.12
				c-6.33-9.67-34.33,0.33-34.33,0.33l-8.37,6.23c0,0,6.86,4.75,17.04,34.1c1.29,3.74,4.87,13.74,8.86,24.88L283.1,392.17z"/>
		</g>
		<g>
			<g>
				<path class="st5" d="M266.78,170.38c0,0,1.51,3.93,1.21,7.26c-0.3,3.33-3.33,4.84-3.63,3.93c-0.3-0.91-0.3-3.33-0.3-4.54
					c0-1.21,0-1.21,0-1.21s-0.6,1.21-2.72,3.33s-3.33,1.51-4.23,1.51s-1.21-3.02,0.3-5.14C258.92,173.4,263.76,168.56,266.78,170.38
					z"/>
				<path class="st5" d="M273.74,178.24c-3.02-1.81-7.56,4.54-14.52,3.02c-0.89-0.19-1.21-1.51,0.3-4.54
					c1.51-3.02,6.35-5.44,8.77-7.26c2.42-1.81,4.23-3.33,4.23-5.44c0-2.12-5.44,1.21-6.96,2.42c-0.69,0.55-3.15,1.8-5.71,3.05
					c-0.37,0.01-0.81,0.03-1.3,0.06c-2.7,0.17-6.84,0.65-8.42,2.03c-2.06,1.8-3.23,7.95-3.73,10.32c-1.34,1.94-2.54,3.72-3.23,4.8
					c-2.12,3.33-44.76,34.48-44.76,34.48l3.02,26.61l48.39-55.04c0,0,1.21-1.21,4.54-2.42c3.33-1.21,7.86-2.12,11.8-4.23
					c3.93-2.12,4.23-2.42,8.47-5.14C276.7,179.64,275.38,179.22,273.74,178.24z"/>
				<path class="st3" d="M222.88,203.04c-11.84,8.94-24.45,18.14-24.45,18.14l3.02,26.61l29.72-33.81L222.88,203.04z"/>
			</g>
			<g>
				<path class="st5" d="M208,303.67c0,0,21.33-1,52.33,4S302.93,317.99,302,324c-3.78,24.34-60.61,104.47-60.61,104.47l1,11.33
					c0,0-2,2.67-9,3c-7,0.33-15.67-9.67-15.67-9.67s7.82-8.09,10.82-17.76c3-9.67,27.12-72.04,27.12-72.04S224,350.33,189,344
					S208,303.67,208,303.67z"/>
				<path class="st14" d="M260.33,307.67c-31-5-52.33-4-52.33-4s-54,34-19,40.33c35,6.33,66.67-0.67,66.67-0.67
					s-10.04,25.96-17.97,46.98l23.51,9.04C278,373.89,299.71,338.73,302,324C302.93,317.99,291.33,312.67,260.33,307.67z"/>
				<g>
					<path class="st3" d="M241.39,428.47c0,0-2,0.67-3,3c-1,2.33-1.67,4.67-1.67,4.67s-6.33-1.33-10.67-3.33c-4.33-2-7.33-4-7.33-4
						s-3,0.33-3,2.33s-0.33,5.67-1.67,9c-0.86,2.15-2.68,6.92-3.88,10.04c-0.59,1.55,0.33,3.26,1.95,3.62
						c5.28,1.17,16.4,3.74,25.92,6.67c13,4,27.33,2,29,1.67c1.67-0.33,8.33-4.33,5.33-7c-3-2.67-20.67-9.67-24.33-14.33
						C244.39,436.14,241.39,428.47,241.39,428.47z"/>
					<path class="st5" d="M271.05,454.2c-0.02,3.31-1.7,6.6-7,6.6c-5.33,0-14.67-0.67-28-6c-10.53-4.21-20.85-6.76-24.72-7.64
						c-0.41,1.08-0.81,2.12-1.15,3.02c-0.59,1.55,0.33,3.26,1.95,3.62c5.28,1.17,16.4,3.74,25.92,6.67c13,4,27.33,2,29,1.67
						c1.67-0.33,8.33-4.33,5.33-7C272.09,454.87,271.63,454.55,271.05,454.2z"/>
				</g>
			</g>
			<g>
				<path class="st3" d="M140.66,226.02c0,0-3.63,28.73-3.33,34.18c0.3,5.44,4.23,52.32,5.14,62.61
					c0.91,10.28,5.14,19.36,12.7,21.17c7.56,1.81,27.22,4.54,35.69,2.42c8.47-2.12,17.54-21.17,20.57-28.43
					c3.02-7.26,5.14-11.8,4.23-13.31c-0.91-1.51-4.84-4.84-4.84-4.84s-7.56-55.04-9.38-69.26c-1.81-14.21-0.91-15.42-7.56-20.87
					C187.24,204.25,152.76,199.71,140.66,226.02z"/>
				<path class="st2" d="M189.06,326.31c-1.09,0.83-2.23,1.62-3.39,2.36"/>
				<path class="st2" d="M209,302c0,0-6.42,12.6-17.05,21.94"/>
				<path class="st2" d="M204.33,302.67c0,0-10.33,9.67-20.67,15.67"/>
			</g>
			<g>
				<g>
					<path class="st5" d="M212.64,135.59c0,0,3.02,6.35,3.93,10.89c0.91,4.54,1.21,8.77,3.33,9.68s6.05,1.21,5.44,3.63
						c-0.6,2.42-4.54,6.35-4.54,6.35s0.91,14.52,0.6,17.24c-0.3,2.72-16.33,2.72-17.24,2.72c-0.91,0-9.98,21.47-9.98,21.47
						l-25.41-12.7l4.84-15.73c0,0-7.86-15.12-8.47-21.78c-0.6-6.65,14.82-18.75,23.59-21.47
						C197.52,133.17,212.64,135.59,212.64,135.59z"/>
					<polygon class="st14" points="204.18,186.1 196.11,183.8 199.13,195.61 					"/>
					<path class="st11" d="M215.64,152.7c0.41,1.71,0.21,3.21-0.44,3.37c-0.65,0.16-1.51-1.1-1.92-2.81
						c-0.41-1.71-0.21-3.21,0.44-3.37C214.37,149.74,215.23,151,215.64,152.7z"/>
					<path class="st2" d="M210.53,168.86c0,0,3.63,2.72,6.96,1.51"/>
				</g>
				<path class="st14" d="M211.13,129.85c0,0,4.23,7.56,1.21,12.4c-3.02,4.84-10.28,6.96-14.21,11.49c-3.93,4.54-6.05,12.4-7.56,13
					c-1.51,0.6-6.05-8.47-8.77-7.86s-7.26,6.96-3.33,13.61c3.93,6.65,10.89,5.75,10.89,5.75s-10.89,5.75-13.01,5.75
					c-2.12,0-8.47-3.63-11.49-6.96c-3.02-3.33-13.91-13.31-14.52-21.47s10.28-18.45,10.28-18.45s-13.01-0.91-9.68-5.75
					c3.33-4.84,15.12-7.86,15.12-7.86s-2.12-7.56,0.91-9.07c3.02-1.51,21.47,4.54,21.47,4.54s-5.14-6.65,2.12-6.96
					C197.82,111.7,210.22,120.77,211.13,129.85z"/>
				<g>
					<line class="st2" x1="187.06" y1="162.69" x2="225.65" y2="147.09"/>
					<path class="st2" d="M215.59,144.9c0.81-0.34,1.71-0.53,2.65-0.53c3.76,0,6.81,3.05,6.81,6.81c0,2.55-1.4,4.77-3.48,5.94"/>
				</g>
			</g>
			<g>
				<path class="st3" d="M201.45,216.04c0,0-0.3-8.77-2.72-11.19c-2.42-2.42-20.26-12.4-28.43-14.52
					c-8.17-2.12-16.63,0.91-22.08,2.72c-5.44,1.81-9.07,6.96-11.19,18.15c-2.12,11.19-2.42,18.15,2.12,18.75
					c4.54,0.6,10.89-13.01,25.1-15.73c14.21-2.72,27.22-0.3,30.24,1.21C197.52,216.95,201.45,216.04,201.45,216.04z"/>
				<path class="st2" d="M155.52,206.76c-2.73,0.96-4.57,1.72-4.57,1.72"/>
				<path class="st2" d="M201.45,216.04c0,0-19.05-10.59-26.01-12.7c-3.63-1.11-10.15,0.35-15.56,1.99"/>
			</g>
			<g>
				<path class="st5" d="M291.26,265.2c0,0-0.99,6.29-2.16,7c-1.17,0.72-1.08-5.84-1.08-5.84s-1.44,3.77-2.33,4.67
					c-0.9,0.9-0.36-3.86-0.36-3.86l0.99-4.49L291.26,265.2z"/>
				<path class="st5" d="M278.46,258.98l9.28,0.15c0,0,2.45,0.35,2.8,1.75s1.75,4.55,1.75,4.55l-14.35-4.2L278.46,258.98z"/>
				<path class="st5" d="M281.78,261.93c0,0,12.95-1.75,13.3-0.7c0.26,0.79,1.27,7.91,1.48,10.21c0.03,0.36-0.43,0.55-0.65,0.26
					l-3.63-6.26l-9.8,0.7C282.48,266.13,279.68,263.68,281.78,261.93z"/>
				<path class="st3" d="M174.31,222.72c0,0-8.05,5.95-5.25,20.66c2.8,14.7,22.41,54.96,24.16,58.47c1.75,3.5,9.45,3.85,12.95,2.8
					c3.5-1.05,65.82-25.91,65.82-25.91s6.65-1.75,7.7-3.15c1.05-1.4,7.7-8.75,7.7-8.75s10.5,1.4,12.95,0.7
					c2.45-0.7-2.45-1.4-4.9-2.1c-1.89-0.54-12.3-4.61-16.98-6.45c-1.38-0.54-2.94-0.21-3.98,0.85c-3.28,3.36-10.27,10.49-11.6,11.55
					c-1.75,1.4-51.11,9.8-51.11,9.8s-11.55-54.26-16.1-58.82c-4.55-4.55-12.6-3.5-12.6-3.5"/>
				<path class="st5" d="M239.42,291.68c16.35-6.48,32.56-12.94,32.56-12.94s6.65-1.75,7.7-3.15c1.05-1.4,7.7-8.75,7.7-8.75
					s10.5,1.4,12.95,0.7c2.45-0.7-2.45-1.4-4.9-2.1c-1.89-0.54-12.3-4.61-16.98-6.45c-1.38-0.54-2.94-0.21-3.98,0.85
					c-3.28,3.36-10.27,10.49-11.6,11.55c-0.91,0.73-14.7,3.35-27.73,5.7L239.42,291.68z"/>
			</g>
		</g>
	</g>
	<g>
		<g>
			<path class="st15" d="M130,360.58l-15.25,101.34c-0.2,1.03,1.29,1.4,1.61,0.4l22.97-100.08L130,360.58z"/>
			<path class="st15" d="M152.76,361.25l6.64,100.49c0.08,1.04,1.62,1.01,1.66-0.03l1.15-101.29L152.76,361.25z"/>
			<path class="st15" d="M175.13,362.77l18.2,98.73c0.22,1.02,1.74,0.78,1.63-0.26l-10.6-100.62L175.13,362.77z"/>
			<path class="st15" d="M210.31,361.93l14.89,99.41c0.18,1.03,1.71,0.85,1.64-0.2l-7.22-100.98L210.31,361.93z"/>
		</g>
		<path class="st5" d="M196.08,341.7c0,0-17.5-5.83-25.67-26.84c-8.17-21-21.59-57.18-30.92-61.85
			c-9.34-4.67-27.42,4.08-28.59,37.93c-1.17,33.84,1.57,59.02,9.11,67.32c6.67,7.33,18,16.67,57.33,17.33
			c35.12,0.6,49.47-12.79,54.33-17.33c5-4.67,12.84-14.22,6.42-14.22C231.67,344.03,204.25,344.03,196.08,341.7z"/>
	</g>
</g>
<g id="Butterfly">
	<g>
		<g>
			<path class="st5" d="M276.93,133.95c0,0-6.83-7.97-16.32-9.49c-9.49-1.52-10.13,12.35,2.02,18.42c5.18,2.59,10.89,1.7,10.89,1.7
				s-9.68,11.45-3.42,13.28c14.05,4.11,11.01-17.46,11.01-17.46L276.93,133.95z"/>
			<path class="st5" d="M279.23,133.45c0,0-3.99-9.71-1.02-18.85s14.89-2.93,14.77,10.64c-0.05,5.79-2.73,10-2.73,10
				s15.26-3.25,13.38,3.01c-4.27,14.22-20.56,1.85-20.56,1.85L279.23,133.45z"/>
			<g>
				<path class="st11" d="M284.53,145.58c-0.34,0-0.67-0.17-0.86-0.49l-9.49-15.94c-0.28-0.47-0.13-1.09,0.35-1.37
					c0.47-0.28,1.09-0.13,1.37,0.35l9.49,15.94c0.28,0.47,0.13,1.09-0.35,1.37C284.88,145.53,284.7,145.58,284.53,145.58z"/>
			</g>
			<path class="st2" d="M275.8,130.54c0,0-3.42-7.21-9.49-7.97"/>
			<path class="st2" d="M275.9,128.13c0,0-2-5.94-0.48-9.74"/>
		</g>
		<path class="st3" d="M269.85,134.87c-0.36,1.76-2.98,2.72-5.86,2.14c-2.88-0.58-4.92-2.49-4.57-4.25
			c0.36-1.76,2.98-2.72,5.86-2.14C268.16,131.2,270.21,133.1,269.85,134.87z"/>
		<path class="st3" d="M276.95,147.27c1.02,0.67,0.96,2.56-0.13,4.22c-1.09,1.66-2.8,2.47-3.82,1.8c-1.02-0.67-0.96-2.56,0.13-4.22
			C274.22,147.4,275.93,146.6,276.95,147.27z"/>
		<path class="st3" d="M297.79,138.9c0.02,1.22-1.58,2.23-3.57,2.25c-1.99,0.03-3.61-0.94-3.63-2.16c-0.02-1.22,1.58-2.23,3.57-2.25
			C296.15,136.72,297.77,137.69,297.79,138.9z"/>
		<path class="st3" d="M285.47,128.46c-1.79,0.2-3.5-2.01-3.83-4.93c-0.32-2.92,0.87-5.45,2.66-5.65c1.79-0.2,3.5,2.01,3.83,4.93
			C288.44,125.74,287.26,128.26,285.47,128.46z"/>
	</g>
</g>
<g id="Floor">
	<line class="st5" x1="24.15" y1="462.93" x2="489.94" y2="462.93"/>
</g>
</svg>
