<?xml version="1.0" encoding="utf-8"?>
<!-- Generator: Adobe Illustrator 25.2.0, SVG Export Plug-In . SVG Version: 6.00 Build 0)  -->
<svg version="1.1" xmlns="http://www.w3.org/2000/svg" xmlns:xlink="http://www.w3.org/1999/xlink" x="0px" y="0px"
	 viewBox="0 0 500 500" style="enable-background:new 0 0 500 500;" xml:space="preserve">
<style type="text/css">
	.st0{fill:#5C009E;}
	.st1{opacity:0.7;fill:#FFFFFF;}
	.st2{fill:none;stroke:#263238;stroke-width:0.5;stroke-linecap:round;stroke-linejoin:round;stroke-miterlimit:10;}
	.st3{fill:#263238;}
	.st4{fill:#FFFFFF;}
	.st5{fill:none;stroke:#263238;stroke-width:2;stroke-miterlimit:10;}
	.st6{opacity:0.2;fill:#FFFFFF;}
	.st7{fill:none;stroke:#263238;stroke-linecap:round;stroke-linejoin:round;stroke-miterlimit:10;}
	.st8{opacity:0.44;fill:#FFFFFF;}
	.st9{fill:none;stroke:#FFFFFF;stroke-miterlimit:10;}
	.st10{fill:none;stroke:#263238;stroke-width:0.5;stroke-miterlimit:10;}
	.st11{fill:#FFFFFF;stroke:#263238;stroke-width:0.5;stroke-miterlimit:10;}
	.st12{opacity:0.2;}
	.st13{fill:#263238;stroke:#263238;stroke-linecap:round;stroke-linejoin:round;stroke-miterlimit:10;}
	.st14{fill:#FFFFFF;stroke:#263238;stroke-linecap:round;stroke-linejoin:round;stroke-miterlimit:10;}
	.st15{fill:#808080;stroke:#263238;stroke-linecap:round;stroke-linejoin:round;stroke-miterlimit:10;}
	.st16{fill:#5C009E;stroke:#263238;stroke-linecap:round;stroke-linejoin:round;stroke-miterlimit:10;}
	.st17{opacity:0.2;clip-path:url(#XMLID_2_);}
	.st18{clip-path:url(#XMLID_3_);fill:#5C009E;}
	.st19{opacity:0.5;clip-path:url(#XMLID_3_);fill:#FFFFFF;}
	.st20{opacity:0.2;clip-path:url(#XMLID_4_);}
	.st21{opacity:0.2;clip-path:url(#XMLID_5_);}
	.st22{clip-path:url(#XMLID_6_);fill:#5C009E;}
	.st23{opacity:0.5;clip-path:url(#XMLID_6_);fill:#FFFFFF;}
	.st24{clip-path:url(#XMLID_6_);fill:none;stroke:#263238;stroke-linecap:round;stroke-linejoin:round;stroke-miterlimit:10;}
	.st25{clip-path:url(#XMLID_7_);}
	.st26{fill:#575757;}
	.st27{fill:none;stroke:#575757;stroke-miterlimit:10;}
	.st28{fill:none;stroke:#263238;stroke-miterlimit:10;}
</style>
<g id="Background_Simple">
	<g>
		<path class="st0" d="M421.58,209.97c0,0,14.98,64.03-26.75,119.81s-114.49,77.46-172.96,96.58
			c-58.48,19.12-113.25-2.95-133.8-52.1s20.95-75.62,30.11-139.8c9.15-64.19,1.85-82.67,44.53-131.54s130.28-47.71,189.5,2.47
			C411.43,155.56,421.58,209.97,421.58,209.97z"/>
		<path class="st1" d="M421.58,209.97c0,0,14.98,64.03-26.75,119.81s-114.49,77.46-172.96,96.58
			c-58.48,19.12-113.25-2.95-133.8-52.1s20.95-75.62,30.11-139.8c9.15-64.19,1.85-82.67,44.53-131.54s130.28-47.71,189.5,2.47
			C411.43,155.56,421.58,209.97,421.58,209.97z"/>
	</g>
</g>
<g id="Plants">
	<g>
		<g>
			<g>
				<g>
					<path class="st0" d="M91.49,258.53c0,0,0-4.18,5.85-10.04c5.85-5.85,9.62-9.2,9.62-9.2s2.93,9.62-2.51,15.47
						c-5.44,5.85-12.96,11.29-12.96,11.29V258.53z"/>
					<path class="st0" d="M99.99,284.65c0,0,0-4.18,5.85-10.04c5.85-5.85,9.62-9.2,9.62-9.2s2.93,9.62-2.51,15.47
						c-5.44,5.85-12.96,11.29-12.96,11.29V284.65z"/>
					<path class="st0" d="M91.86,265.66c0,0-0.44-4.16-6.88-9.36c-6.44-5.2-10.54-8.13-10.54-8.13s-1.89,9.87,4.13,15.12
						c6.02,5.25,14.08,9.86,14.08,9.86L91.86,265.66z"/>
					<path class="st0" d="M102.13,296.5c0,0-0.88-4.09-7.83-8.59c-6.95-4.5-11.33-6.98-11.33-6.98s-0.85,10.02,5.7,14.6
						c6.54,4.59,15.04,8.32,15.04,8.32L102.13,296.5z"/>
					<path class="st0" d="M100.2,330.13c0,0,0-4.18-5.85-10.04c-5.85-5.85-9.62-9.2-9.62-9.2s-2.93,9.62,2.51,15.47
						c5.44,5.85,12.96,11.29,12.96,11.29V330.13z"/>
					<path class="st0" d="M100.3,338.34c0,0-0.59-4.14,4.37-10.77c4.96-6.63,8.21-10.47,8.21-10.47s4.26,9.1-0.28,15.67
						s-11.23,13.02-11.23,13.02L100.3,338.34z"/>
					<path class="st0" d="M106.07,362.66c0,0,0-4.18-5.85-10.04c-5.85-5.85-9.62-9.2-9.62-9.2s-2.93,9.62,2.51,15.47
						c5.44,5.85,12.96,11.29,12.96,11.29V362.66z"/>
					<path class="st0" d="M102.16,384.72c0,0,1.06-4.05-3.12-11.19c-4.18-7.15-6.97-11.34-6.97-11.34s-5.27,8.56-1.49,15.6
						c3.78,7.04,9.68,14.21,9.68,14.21L102.16,384.72z"/>
				</g>
				<path class="st2" d="M90.96,257.46c0.34,4.47,0.85,9.09,1.6,12.98c2.31,11.96,8.1,19.67,10.41,30.47
					c2.31,10.8-4.33,24.71-2.55,38.59c1.78,13.87,7.18,21.59,5.64,30.84c-1.54,9.26-9.64,34.33-9.64,34.33"/>
				<line class="st2" x1="91.92" y1="268.44" x2="85.61" y2="263.59"/>
				<line class="st2" x1="91.63" y1="262.86" x2="94.27" y2="258.16"/>
				<path class="st2" d="M102.63,300.42c0,0-5.28-3.96-10.71-7.92"/>
				<path class="st2" d="M99.99,292.18c0,0,4.4-8.63,9.39-14.35"/>
				<path class="st2" d="M99.99,336.08c0,0-4.11-8.07-11.3-15.11"/>
				<path class="st2" d="M101.02,341.95c0,0,2.64-6.31,5.72-10.86c3.08-4.55,3.52-5.14,3.52-5.14"/>
				<path class="st2" d="M106.07,370.35c0,0-2.12-5.37-4.76-9.62c-2.64-4.26-6.16-8.07-6.16-8.07"/>
				<path class="st2" d="M100.25,392c0,0,0.62-5.01-1.58-9.26c-2.2-4.26-4.7-9.83-5.72-12.03"/>
			</g>
			<g>
				<g>
					<path class="st0" d="M129.83,314.4c0,0,0.45-2.62-2.58-6.93c-3.04-4.31-5.03-6.81-5.03-6.81s-2.88,5.71-0.11,9.98
						c2.77,4.26,6.9,8.49,6.9,8.49L129.83,314.4z"/>
					<path class="st0" d="M121.67,329.86c0,0,0.45-2.62-2.58-6.93c-3.04-4.31-5.03-6.81-5.03-6.81s-2.88,5.71-0.11,9.98
						c2.77,4.26,6.9,8.49,6.9,8.49L121.67,329.86z"/>
					<path class="st0" d="M128.83,318.83c0,0,0.73-2.56,5.33-5.12c4.6-2.56,7.49-3.96,7.49-3.96s0.12,6.4-4.23,9.03
						c-4.35,2.64-9.9,4.65-9.9,4.65L128.83,318.83z"/>
					<path class="st0" d="M119.04,337.06c0,0,0.99-2.47,5.84-4.54c4.85-2.07,7.86-3.15,7.86-3.15s-0.56,6.37-5.16,8.54
						c-4.6,2.17-10.34,3.59-10.34,3.59L119.04,337.06z"/>
					<path class="st0" d="M116.6,358.35c0,0,0.45-2.62,4.76-5.66c4.31-3.04,7.03-4.72,7.03-4.72s0.79,6.35-3.25,9.43
						c-4.04,3.08-9.36,5.67-9.36,5.67L116.6,358.35z"/>
					<path class="st0" d="M115.65,363.49c0,0,0.82-2.53-1.57-7.23c-2.39-4.69-4.01-7.46-4.01-7.46s-3.66,5.25-1.52,9.86
						c2.14,4.61,5.63,9.38,5.63,9.38L115.65,363.49z"/>
					<path class="st0" d="M108.3,384.64c0,0-0.3-2.64-4.43-5.92c-4.13-3.28-6.75-5.12-6.75-5.12s-1.15,6.29,2.71,9.6
						c3.86,3.31,9.02,6.2,9.02,6.2L108.3,384.64z"/>
					<path class="st0" d="M109.39,378.12c0,0,0.45-2.62,4.76-5.66c4.31-3.04,7.03-4.73,7.03-4.73s0.79,6.35-3.25,9.43
						c-4.04,3.08-9.36,5.67-9.36,5.67L109.39,378.12z"/>
					<path class="st0" d="M109.45,392.37c0,0-0.22-2.65,3.17-6.68c3.4-4.03,5.6-6.35,5.6-6.35s2.37,5.94-0.76,9.95
						c-3.13,4.01-7.61,7.86-7.61,7.86L109.45,392.37z"/>
				</g>
				<path class="st2" d="M130.28,313.79c-0.7,2.77-1.52,5.61-2.42,7.97c-2.75,7.25-7.22,11.46-9.84,17.98
					c-2.62,6.52,0.03,15.97-2.59,24.47c-2.62,8.51-6.85,12.76-6.88,18.73c-0.04,5.97,2.32,22.57,2.32,22.57"/>
				<line class="st2" x1="128.49" y1="320.56" x2="132.97" y2="318.21"/>
				<line class="st2" x1="129.28" y1="317.1" x2="128.13" y2="313.87"/>
				<path class="st2" d="M118.3,339.46c0,0,3.74-1.91,7.58-3.81"/>
				<path class="st2" d="M120.85,334.58c0,0-1.82-5.89-4.33-10.02"/>
				<path class="st2" d="M116.09,362.11c0,0,3.45-4.61,8.73-8.25"/>
				<path class="st2" d="M114.81,365.68c0,0-0.97-4.24-2.41-7.43c-1.44-3.19-1.65-3.6-1.65-3.6"/>
				<path class="st2" d="M108.76,387.47c0,0-2.97-3.64-4.82-5c-1.85-1.36-3.13-2.72-3.13-2.72"/>
				<path class="st2" d="M108.56,382.94c0,0,1.91-3.13,4.03-5.52c2.12-2.38,4.74-4.39,4.74-4.39"/>
				<path class="st2" d="M109.85,397.15c0,0,0.16-3.21,2-5.64c1.84-2.43,4.01-5.66,4.89-6.92"/>
			</g>
		</g>
		<g>
			<path class="st3" d="M87.58,434.36h32.22c1.68,0,3.04-1.36,3.04-3.04v-28.7h-38.3v28.7C84.54,433,85.9,434.36,87.58,434.36z"/>
			<path class="st3" d="M84.87,407.61h37.97c1.66,0,3-1.34,3-3l0,0c0-1.66-1.34-3-3-3H84.87c-1.66,0-3,1.34-3,3l0,0
				C81.87,406.27,83.22,407.61,84.87,407.61z"/>
		</g>
	</g>
</g>
<g id="Clock">
	<g>
		<circle class="st3" cx="157.73" cy="106.67" r="34"/>
		
			<ellipse transform="matrix(0.3759 -0.9267 0.9267 0.3759 -0.4054 212.7314)" class="st4" cx="157.73" cy="106.67" rx="29.49" ry="29.49"/>
		<polyline class="st5" points="176.85,112.09 157.73,106.67 157.73,79.91 		"/>
	</g>
</g>
<g id="Graphics">
	<g>
		<polygon class="st3" points="322.69,258.67 360.02,258.67 408.89,127.51 371.56,127.51 		"/>
		<polygon class="st6" points="322.69,258.67 360.02,258.67 408.89,127.51 371.56,127.51 		"/>
		<path class="st3" d="M381.53,159.55h9.6c1.2,0,2.53-0.97,2.97-2.17l3.71-9.95c0.45-1.2-0.16-2.17-1.36-2.17h-9.6
			c-1.2,0-2.53,0.97-2.97,2.17l-3.71,9.95C379.73,158.58,380.34,159.55,381.53,159.55z"/>
		<polygon class="st3" points="369.09,134.14 406.42,134.14 408.89,127.51 371.56,127.51 		"/>
		<g>
			<line class="st7" x1="393.67" y1="135.23" x2="392.59" y2="138.11"/>
			<line class="st7" x1="392.23" y1="135.23" x2="391.16" y2="138.11"/>
			<line class="st7" x1="390.79" y1="135.23" x2="389.72" y2="138.11"/>
			<line class="st7" x1="389.35" y1="135.23" x2="388.28" y2="138.11"/>
			<line class="st7" x1="387.91" y1="135.23" x2="386.84" y2="138.11"/>
			<line class="st7" x1="386.47" y1="135.23" x2="385.4" y2="138.11"/>
			<line class="st7" x1="385.04" y1="135.23" x2="383.96" y2="138.11"/>
			<line class="st7" x1="383.6" y1="135.23" x2="382.53" y2="138.11"/>
			<line class="st7" x1="382.16" y1="135.23" x2="381.09" y2="138.11"/>
			<line class="st7" x1="380.72" y1="135.23" x2="379.65" y2="138.11"/>
		</g>
		<g>
			<path class="st4" d="M384.64,153.31l9.04-5.73c0.21-0.13,0.45-0.16,0.6-0.06c0.15,0.1,0.18,0.3,0.09,0.51l-4.14,8.93
				c-0.1,0.22-0.32,0.4-0.56,0.46c-0.05,0.01-0.1,0.02-0.14,0.02c-0.17,0-0.3-0.08-0.35-0.22l-0.95-2.94l-3.6-0.04
				c-0.22,0-0.36-0.14-0.36-0.35C384.27,153.68,384.42,153.45,384.64,153.31z"/>
			<g>
				<polygon class="st3" points="384.82,153.71 393.86,147.98 389.72,156.91 388.69,153.76 				"/>
			</g>
		</g>
		<polygon class="st4" points="367.93,153.71 376.97,147.98 372.83,156.91 371.8,153.76 		"/>
		<polygon class="st4" points="363.3,158.79 364.12,156.95 365.18,158.5 		"/>
		<polygon class="st4" points="341.46,217.41 342.28,215.57 343.34,217.11 		"/>
		<polygon class="st4" points="334.76,235.4 335.57,233.56 336.64,235.1 		"/>
		<polygon class="st4" points="327.88,253.84 328.7,252 329.76,253.55 		"/>
		<polygon class="st4" points="366.37,196.64 367.19,194.8 368.25,196.34 		"/>
		<polygon class="st4" points="358.64,217.41 359.45,215.57 360.51,217.11 		"/>
		<polygon class="st4" points="351.93,235.4 352.75,233.56 353.81,235.1 		"/>
		<polygon class="st4" points="345.06,253.84 345.87,252 346.94,253.55 		"/>
		<g>
			<polygon class="st4" points="384.64,178.53 383.07,179.54 378.76,170.53 380.33,169.51 			"/>
			<path class="st4" d="M382.71,169.7c2.28-1.79,2.45-2.14,1.89-4.16c1.18,1.62,1.53,1.65,4.04,0.33c-2.28,1.79-2.45,2.14-1.89,4.16
				C385.56,168.42,385.22,168.39,382.71,169.7z"/>
			<path class="st4" d="M375.17,170.67c1.41-1.1,1.51-1.32,1.17-2.57c0.73,1,0.94,1.02,2.5,0.21c-1.41,1.1-1.51,1.32-1.17,2.57
				C376.93,169.88,376.72,169.86,375.17,170.67z"/>
			<path class="st4" d="M375.59,174.91c1.01-0.79,1.08-0.94,0.83-1.84c0.52,0.71,0.67,0.73,1.78,0.15
				c-1.01,0.79-1.08,0.94-0.83,1.84C376.85,174.34,376.7,174.33,375.59,174.91z"/>
		</g>
		<polygon class="st4" points="352.93,214.88 351.96,215.57 347.64,206.55 348.62,205.86 		"/>
		<g>
			<g>
				<polygon class="st4" points="356.55,176.2 364.53,171.15 360.87,179.03 359.97,176.24 				"/>
			</g>
			<g>
				<path class="st4" d="M358.68,172.82c0.79-2.12,3.81-3.84,6.73-3.84c2.92,0,4.66,1.72,3.87,3.84c-0.79,2.12-3.81,3.84-6.73,3.84
					C359.63,176.67,357.89,174.94,358.68,172.82z M359.14,172.82c-0.69,1.86,0.91,3.38,3.58,3.38c2.67,0,5.41-1.52,6.1-3.38
					c0.69-1.86-0.91-3.38-3.58-3.38C362.57,169.44,359.84,170.96,359.14,172.82z"/>
			</g>
			<g>
				<path class="st4" d="M365.24,174.59c0.27-0.72,1.07-1.31,1.79-1.31c0.72,0,1.09,0.59,0.82,1.31c-0.27,0.72-1.07,1.31-1.79,1.31
					C365.34,175.9,364.98,175.31,365.24,174.59z M365.71,174.59c-0.17,0.47,0.06,0.85,0.53,0.85c0.47,0,0.99-0.38,1.16-0.85
					c0.17-0.47-0.06-0.85-0.53-0.85C366.4,173.75,365.88,174.12,365.71,174.59z"/>
			</g>
			<g>
				<path class="st4" d="M365.94,177.27l0.32-0.43c-0.58-0.24-0.89-0.59-0.93-1.04c-0.06-0.57,0.34-1.12,0.34-1.12l-0.37-0.16
					c-0.02,0.03-0.53,0.73-0.46,1.48C364.88,176.56,365.26,176.99,365.94,177.27z"/>
			</g>
		</g>
		<g>
			<polygon class="st4" points="370.94,190.27 376.5,186.21 377.68,188.1 372.12,192.15 			"/>
			<path class="st4" d="M379.85,195.52l-0.91,0.66l-2.04-3.25c0.23-0.24,0.32-0.56,0.18-0.77c-0.16-0.25-0.56-0.25-0.9,0
				c-0.34,0.25-0.49,0.65-0.34,0.9c0.13,0.21,0.43,0.24,0.73,0.1l2.04,3.25l-0.85,0.62l-5.03-1.41l-0.31-2.97l5.49-4l2.53,1.36
				L379.85,195.52z"/>
		</g>
		<line class="st7" x1="385.12" y1="182.79" x2="352.99" y2="182.79"/>
		<g>
			<polygon class="st4" points="357.17,186.21 358.35,188.1 352.79,192.15 351.61,190.27 			"/>
			<path class="st4" d="M361.11,190.01l-0.59,5.51l-0.91,0.66l-2.04-3.25c0.23-0.24,0.32-0.56,0.18-0.77c-0.16-0.25-0.56-0.25-0.9,0
				c-0.34,0.25-0.49,0.65-0.34,0.9c0.13,0.21,0.43,0.24,0.73,0.1l2.04,3.25l-0.85,0.62l-5.03-1.41l-0.31-2.97l5.49-4L361.11,190.01z
				"/>
			<path class="st4" d="M362.49,191.63c-0.05-0.39-0.11-0.81-0.15-1.28c-0.08-0.95,0.19-1.79,0.79-2.51
				c0.95-1.13,2.38-1.5,2.44-1.51c0.15-0.04,0.27,0.04,0.25,0.18c-0.01,0.14-0.15,0.28-0.3,0.32c-0.01,0-1.23,0.31-2,1.23
				c-0.48,0.57-0.69,1.27-0.62,2.07c0.04,0.46,0.09,0.88,0.15,1.26c0.27,2,0.43,3.2-2.89,5.19c-0.06,0.04-0.12,0.05-0.18,0.05
				c-0.08,0-0.14-0.04-0.17-0.1c-0.05-0.11,0.04-0.28,0.18-0.37C362.87,194.44,362.76,193.62,362.49,191.63z"/>
		</g>
		<path class="st4" d="M376.71,205l-0.19,0.52c-0.07,0.18-0.68,1.8-1,2.35l-0.93-0.23c0.15-0.25,0.45-0.98,0.69-1.6h-3.97
			l-3.32,8.91h1.49l-0.39,1.04h-4.02l0.39-1.04h1.49l3.32-8.91h-3.86c-0.21,0.56-0.54,1.44-0.7,1.88l-1.05,0
			c0.25-0.67,0.89-2.4,0.89-2.4l0.19-0.52H376.71z"/>
		<g>
			<path class="st8" d="M355.83,229.72c-0.85,2.29,1.03,4.15,4.2,4.15s6.44-1.86,7.29-4.15c0.85-2.29-1.03-4.15-4.2-4.15
				S356.68,227.43,355.83,229.72z"/>
			<path class="st9" d="M355.83,229.72c-0.85,2.29,1.03,4.15,4.2,4.15s6.44-1.86,7.29-4.15c0.85-2.29-1.03-4.15-4.2-4.15
				S356.68,227.43,355.83,229.72z"/>
		</g>
		<g>
			<path class="st4" d="M344,229.84l-3.77-6.85c-0.16-0.28-0.56-0.34-0.96-0.14l0,0c-0.48,0.24-0.79,0.75-0.69,1.13l2.03,7.57
				L344,229.84z"/>
			<path class="st4" d="M344.62,230.42c-1.48-0.2-4.38,1.07-4.46,2.99c-0.02,0.48,0.3,0.81,0.67,1.03c1.12,0.68,2.69,0.71,4.22,0.73
				c-0.37-0.26-0.52-0.74-0.4-1.26c0.12-0.54,0.49-1.08,0.69-1.62C345.61,231.51,345.46,230.48,344.62,230.42"/>
		</g>
		<g>
			<path class="st4" d="M352.47,245.45c0.44-0.96,0.99-1.55,1.37-1.87l1.14,1.81c-0.44,0.37-1.08,1.04-1.58,2.12
				c-0.44,0.96-0.84,1.65-1.13,2.09l-1.11-1.78C351.52,247.31,351.99,246.49,352.47,245.45z"/>
			<path class="st4" d="M353.78,247.54c0.44-0.96,0.99-1.55,1.37-1.87l1.14,1.81c-0.44,0.37-1.08,1.04-1.58,2.12
				c-0.44,0.96-0.84,1.65-1.13,2.09l-1.11-1.78C352.83,249.41,353.31,248.58,353.78,247.54z"/>
			<path class="st4" d="M352.09,245.42c-0.44,0.96-0.84,1.65-1.13,2.09l-1.64-2.62l3.67-2.68l0.68,1.08
				C353.22,243.67,352.58,244.34,352.09,245.42z"/>
			<path class="st4" d="M353.8,251.98l2.92,1.15c0.21,0.08,0.52-0.14,0.53-0.38l0.16-3.46l-0.95-1.52
				c-0.38,0.32-0.93,0.92-1.37,1.87C354.63,250.66,354.17,251.47,353.8,251.98z M354.81,251.33l1.67-1.22l-0.09,1.84L354.81,251.33z
				"/>
		</g>
		<path class="st4" d="M341.08,246.8l-2.95-4.71l-7.25,5.28l2.95,4.71l0.39-0.29l1.25,2l6.46-4.71l-1.25-2L341.08,246.8z
			 M335.01,251.22l4.9-3.57l0.89,1.43l-4.9,3.57L335.01,251.22z"/>
		<g>
			<polygon class="st4" points="401.68,129.27 401.45,129.9 402.34,131 400.62,132.1 400.39,132.74 403.1,131 			"/>
			<polygon class="st4" points="403.94,129.27 403.7,129.9 404.6,131 402.88,132.1 402.65,132.74 405.35,131 			"/>
		</g>
	</g>
	<g>
		<polygon class="st3" points="250.39,206.17 327.6,206.17 351.21,140.33 274,140.33 		"/>
		<polygon class="st0" points="255.87,202.58 324.7,202.58 345.73,143.92 276.9,143.92 		"/>
		<polygon class="st4" points="268.96,166.07 280.34,157.69 289.33,181.03 312.64,174.45 324.7,202.58 255.87,202.58 		"/>
		<path class="st4" d="M316.38,156.49c1.6-4.46,6.51-8.08,10.98-8.08c4.46,0,6.78,3.62,5.18,8.08c-1.6,4.46-6.51,8.08-10.98,8.08
			C317.1,164.57,314.78,160.96,316.38,156.49z"/>
	</g>
	<g>
		<polygon class="st3" points="242.39,194.84 319.6,194.84 343.21,129 266,129 		"/>
		<polygon class="st0" points="247.87,191.25 316.7,191.25 337.73,132.59 268.9,132.59 		"/>
		<polygon class="st4" points="260.96,154.74 272.34,146.36 281.33,169.7 304.64,163.12 316.7,191.25 247.87,191.25 		"/>
		<path class="st4" d="M308.38,145.16c1.6-4.46,6.51-8.08,10.98-8.08c4.46,0,6.78,3.62,5.18,8.08c-1.6,4.46-6.51,8.08-10.98,8.08
			C309.1,153.24,306.78,149.62,308.38,145.16z"/>
	</g>
	<g>
		<g>
			<path d="M257.72,118.67l-1.42,4.5h-0.54c0.25-0.87,0.3-1.56,0.13-2.07c-0.16-0.51-0.46-0.85-0.88-1.03
				c-0.33-0.13-0.94-0.2-1.84-0.2h-2.31l-5.36,14.67c-0.39,1.08-0.54,1.77-0.44,2.07c0.16,0.49,0.65,0.74,1.46,0.74h0.68l-0.19,0.52
				h-8.14l0.19-0.52h0.67c0.75,0,1.37-0.2,1.87-0.59c0.36-0.29,0.76-1.03,1.19-2.21l5.36-14.67h-2.7c-0.79,0-1.48,0.13-2.06,0.39
				c-0.58,0.26-1.12,0.66-1.61,1.21c-0.3,0.34-0.65,0.91-1.05,1.7h-0.54l1.86-4.5H257.72z"/>
		</g>
		<line class="st10" x1="230.36" y1="127.72" x2="224.48" y2="127.72"/>
		<polygon class="st10" points="224.67,143.28 254.23,143.28 265.18,113.34 235.62,113.34 		"/>
		<polygon class="st11" points="258.44,128.82 260.66,128.82 261.47,126.61 259.25,126.61 		"/>
		<polygon class="st11" points="228.85,128.82 231.06,128.82 231.87,126.61 229.66,126.61 		"/>
		<polygon class="st11" points="263.64,114.61 265.86,114.61 266.67,112.4 264.45,112.4 		"/>
		<polygon class="st11" points="234.04,114.61 236.26,114.61 237.07,112.4 234.85,112.4 		"/>
		<polygon class="st11" points="248.83,114.61 251.05,114.61 251.86,112.4 249.64,112.4 		"/>
		<polygon class="st11" points="252.82,144.21 255.03,144.21 255.84,142 253.63,142 		"/>
		<polygon class="st11" points="223.22,144.21 225.43,144.21 226.24,142 224.03,142 		"/>
		<line class="st10" x1="239.28" y1="143.81" x2="237.13" y2="149.69"/>
		<polygon class="st11" points="238.01,144.21 240.22,144.21 241.03,142 238.82,142 		"/>
		<polygon class="st3" points="235.6,150.8 237.81,150.8 238.62,148.58 236.41,148.58 		"/>
		<line class="st10" x1="256.01" y1="137.67" x2="231.17" y2="137.67"/>
		<path class="st3" d="M223.31,127.72c0.24-0.64,0.95-1.17,1.59-1.17c0.64,0,0.98,0.52,0.74,1.17c-0.24,0.64-0.95,1.17-1.59,1.17
			C223.41,128.88,223.08,128.36,223.31,127.72z"/>
	</g>
</g>
<g id="Table">
	<g>
		<polygon class="st12" points="360.36,286.49 333.57,309.45 359.1,434.36 357.37,434.36 328.98,311.74 302.95,333.56 
			339.69,434.21 337.4,433.83 298.74,335.85 191.21,433.83 125.76,433.83 202.3,283.81 		"/>
		<g>
			<polygon id="XMLID_50_" class="st13" points="357.37,434.36 359.1,434.36 361.69,284.35 354.78,284.35 			"/>
			<polygon id="XMLID_84_" class="st13" points="208.52,434.36 210.24,434.36 212.83,284.35 205.92,284.35 			"/>
			
				<rect id="XMLID_62_" x="197.97" y="282.03" transform="matrix(-1 -4.489532e-11 4.489532e-11 -1 562.3028 567.9581)" class="st14" width="166.36" height="3.89"/>
		</g>
	</g>
</g>
<g id="Paper_Bin">
	<g>
		<g>
			<path class="st14" d="M401.9,362.57l3.02,6.38c0,0-3.7,4.03-5.38,4.03s-2.35-1.68-4.37-2.35c-2.02-0.67-5.38-7.06-5.38-7.06
				s2.02-3.36,4.03-3.7s5.04-1.34,6.72-1.68C402.23,357.86,401.9,362.57,401.9,362.57z"/>
			<path class="st7" d="M401.9,362.57l-2.02,3.36v3.02c0,0-2.02,1.01-2.69,0c-0.67-1.01-3.7-4.37-3.7-4.37l1.34-3.02"/>
			<line class="st7" x1="399.88" y1="368.95" x2="403.58" y2="368.28"/>
		</g>
		<g>
			<path class="st14" d="M343.99,423.02l6.79,1.94c0,0,0.59,5.44-0.52,6.7c-1.11,1.26-2.82,0.66-4.65,1.73
				c-1.84,1.07-8.85-0.62-8.85-0.62s-1.19-3.73-0.11-5.47s2.32-4.67,3.18-6.16C340.68,419.67,343.99,423.02,343.99,423.02z"/>
			<path class="st7" d="M343.99,423.02l1.19,3.73l2.27,2c0,0-0.57,2.18-1.78,2.02c-1.2-0.16-5.72-0.11-5.72-0.11l-1.38-3.01"/>
			<line class="st7" x1="347.45" y1="428.75" x2="349.39" y2="425.54"/>
		</g>
		<g>
			<path class="st14" d="M412.65,361.22c0,0,5.71,3.7,4.7,5.71c-1.01,2.02-1.68,3.36-2.69,4.03c-1.01,0.67-4.03,1.68-5.04,1.01
				c-1.01-0.67-3.36-2.35-3.7-5.04s-1.34-3.02-0.34-4.37C406.6,361.22,412.65,361.22,412.65,361.22z"/>
			<path class="st7" d="M417.36,366.94l-4.03,2.69l-3.36-0.34l-1.34-3.7c0,0,0-2.02,2.02-2.02s3.02,1.01,3.02,1.01l-0.67,2.02"/>
		</g>
		<g>
			<path class="st14" d="M387.78,356.52c0,0,5.04,4.7,4.37,8.06c-0.67,3.36-7.06,6.05-7.06,6.05l-7.73-4.37l2.35-6.05l5.04-2.69
				L387.78,356.52z"/>
			<polyline class="st7" points="392.15,364.58 386.78,366.6 380.73,364.58 383.08,359.21 			"/>
			<polyline class="st7" points="387.78,356.52 388.12,363.58 384.09,364.92 			"/>
		</g>
		<g>
			<path class="st14" d="M372.66,419.69c0,0,5.04,4.7,4.37,8.06c-0.67,3.36-7.06,6.05-7.06,6.05l-7.73-4.37l2.35-6.05l5.04-2.69
				L372.66,419.69z"/>
			<polyline class="st7" points="377.03,427.76 371.66,429.78 365.61,427.76 367.96,422.38 			"/>
			<polyline class="st7" points="372.66,419.69 373,426.75 368.97,428.1 			"/>
		</g>
		<g>
			<path class="st14" d="M406.27,351.48c0,0,5.04,4.7,4.37,8.06c-0.67,3.36-7.06,6.05-7.06,6.05l-7.73-4.37l2.35-6.05l5.04-2.69
				L406.27,351.48z"/>
			<polyline class="st7" points="410.64,359.54 405.26,361.56 399.21,359.54 401.56,354.17 			"/>
			<polyline class="st7" points="406.27,351.48 406.6,358.54 402.57,359.88 			"/>
		</g>
		<g>
			<polygon id="XMLID_36_" class="st13" points="378.07,434.36 417.95,434.36 423.93,368.25 372.09,368.25 			"/>
		</g>
		<g>
			<path class="st14" d="M404.59,423.39c0,0,5.71,3.7,4.7,5.71s-1.68,3.36-2.69,4.03c-1.01,0.67-4.03,1.68-5.04,1.01
				c-1.01-0.67-3.36-2.35-3.7-5.04c-0.34-2.69-1.34-3.02-0.34-4.37C398.54,423.39,404.59,423.39,404.59,423.39z"/>
			<path class="st7" d="M409.29,429.1l-4.03,2.69l-3.36-0.34l-1.34-3.7c0,0,0-2.02,2.02-2.02s3.02,1.01,3.02,1.01l-0.67,2.02"/>
		</g>
	</g>
</g>
<g id="Character">
	<g id="XMLID_66_">
		<path id="XMLID_65_" class="st15" d="M298.85,236.32c0,1.04,0.99,1.89,2.21,1.89c1.22,0,2.21-0.85,2.21-1.89
			c0-1.04-0.99-1.89-2.21-1.89C299.84,234.43,298.85,235.27,298.85,236.32z"/>
		<path id="XMLID_67_" class="st15" d="M296.73,242.08c0,1.04,0.99,1.89,2.21,1.89s2.21-0.85,2.21-1.89c0-1.04-0.99-1.89-2.21-1.89
			S296.73,241.03,296.73,242.08z"/>
		<path id="XMLID_68_" class="st15" d="M294.6,247.84c0,1.04,0.99,1.89,2.21,1.89s2.21-0.85,2.21-1.89c0-1.04-0.99-1.89-2.21-1.89
			S294.6,246.79,294.6,247.84z"/>
		<path id="XMLID_69_" class="st15" d="M292.48,253.6c0,1.04,0.99,1.89,2.21,1.89c1.22,0,2.21-0.85,2.21-1.89
			c0-1.04-0.99-1.89-2.21-1.89C293.47,251.71,292.48,252.55,292.48,253.6z"/>
	</g>
	<g>
		<polygon id="XMLID_112_" class="st13" points="322.43,281.66 337.58,281.66 339.85,256.55 320.16,256.55 		"/>
		<polygon class="st16" points="320.9,264.81 338.3,273.67 337.58,281.66 329.47,281.66 321.61,272.63 		"/>
		
			<rect id="XMLID_114_" x="318.4" y="253.55" transform="matrix(-1 -4.500590e-11 4.500590e-11 -1 660.0066 512.5585)" class="st16" width="23.2" height="5.46"/>
	</g>
	<g>
		<g id="XMLID_71_">
			<path id="XMLID_72_" class="st13" d="M277.61,281.95h27.25c1.91,0,3.46-1.55,3.46-3.46c0-1.91-1.55-3.46-3.46-3.46h-27.25
				c-1.91,0-3.46,1.55-3.46,3.46C274.16,280.4,275.7,281.95,277.61,281.95z"/>
		</g>
		<polygon id="XMLID_63_" class="st13" points="205.14,282.03 289.02,282.03 309.03,227.57 225.14,227.57 		"/>
		<polygon id="XMLID_64_" class="st15" points="210.46,276.37 282.09,276.37 299.17,229.87 227.54,229.87 		"/>
		<g>
			<path id="XMLID_75_" class="st13" d="M196.38,301.48c0,0,3.62,5.32,6.59,8.01c2.97,2.69,12.05,11.11,19.58,23.86
				c7.53,12.75,12.76,25.78,17.74,37.06c4.98,11.28,13.96,32.1,18.52,38.44c4.56,6.34,7.56,9.73,7.56,9.73s7.45,0.17,16.27-0.61
				c8.82-0.78,12.47-2.38,12.58-0.08c0.11,2.3-5.96,8.62-10.34,9.71c-4.38,1.1-9.96,2.79-11.32,4.09c-1.35,1.31-3.05,2.81-5.23,1.85
				c-2.17-0.96-8.82-10.2-16.22-16.58c-7.4-6.38-16.21-12.68-24.19-27.53c-7.98-14.85-8.39-23.34-13.98-28.91
				c-5.59-5.58-11.5-14.33-18.64-18.94c-7.13-4.62-28.45-13.15-35.26-22.04c-6.81-8.88-3.26-19.69,3.29-23.55
				C169.88,292.13,191.25,290.75,196.38,301.48z"/>
			<g>
				<path id="XMLID_82_" class="st14" d="M253.54,399.48c2.01,4.04,3.85,7.4,5.27,9.37c4.56,6.34,7.56,9.73,7.56,9.73
					s7.45,0.17,16.27-0.61c8.82-0.78,12.47-2.38,12.58-0.08c0.11,2.3-5.96,8.62-10.34,9.71c-4.38,1.1-9.96,2.79-11.32,4.09
					c-1.35,1.31-3.05,2.81-5.23,1.85c-2.17-0.96-8.82-10.2-16.22-16.58c-3.44-2.97-7.19-5.93-11.02-9.73
					C247.13,405.78,251.21,402.17,253.54,399.48z"/>
				<path id="XMLID_81_" class="st16" d="M268.33,433.55c-0.66-0.29-1.75-1.37-3.15-2.89c5.98-1.19,9.07-4.2,11.81-4.97
					c3.85-1.07,7.11-3.18,7.11-3.18l-2.98-4.41c0.5-0.04,1.01-0.08,1.52-0.13c8.82-0.78,12.47-2.38,12.58-0.08
					c0.11,2.3-5.96,8.62-10.34,9.71c-4.38,1.1-9.96,2.79-11.32,4.09C272.2,433.01,270.5,434.51,268.33,433.55z"/>
			</g>
		</g>
		<g>
			<path id="XMLID_70_" class="st13" d="M257.97,329.64c0,0-1.59,7.43-5.13,14.51c-3.54,7.08-11.33,14.51-16.99,18.76
				c-5.66,4.25-23.89,20.53-32.92,33.45c-1.13,1.62,3.19,7.08,8.49,11.86c5.31,4.78,7.61,6.55,4.78,7.43
				c-2.83,0.88-9.56,0.53-16.28-5.13c-6.73-5.66-11.15-9.38-13.27-13.98c-1.06-2.3,4.78-5.13,8.32-8.14
				c3.54-3.01,16.64-22.83,20.71-32.03c4.07-9.2,14.34-22.3,21.95-26.9"/>
			<g>
				<path id="XMLID_80_" class="st14" d="M186.65,396.54c-1.06-2.3,4.78-5.13,8.32-8.14c2.98-2.53,12.71-16.94,18.15-26.94
					l12.05,10.65c-7.49,6.93-16.63,16.24-22.23,24.26c-1.13,1.62,3.19,7.08,8.49,11.86c5.31,4.78,7.61,6.55,4.78,7.43
					c-2.83,0.88-9.56,0.53-16.28-5.13C193.19,404.86,188.77,401.14,186.65,396.54z"/>
				<path id="XMLID_79_" class="st16" d="M190.28,391.84c0.95,1.42,2.19,3.35,3.62,5.76c3.36,5.66,12.57,12.92,13.8,11.68
					c0.69-0.69,1.39-1.88,1.86-2.8c0.6,0.58,1.22,1.17,1.85,1.74c5.31,4.78,7.61,6.55,4.78,7.43c-2.83,0.88-9.56,0.53-16.28-5.13
					c-6.73-5.66-11.15-9.38-13.27-13.98C186,395.14,187.9,393.55,190.28,391.84z"/>
			</g>
		</g>
		
			<rect id="XMLID_77_" x="142.22" y="408.04" transform="matrix(-1 -4.492108e-11 4.492108e-11 -1 344.6195 818.9133)" class="st14" width="60.17" height="2.83"/>
		<path id="XMLID_76_" class="st14" d="M196.91,332.12l10.53,100.66c0.05,0.48-0.33,0.89-0.81,0.89l0,0c-0.4,0-0.74-0.29-0.8-0.69
			l-15.65-100.86H196.91z"/>
		<path id="XMLID_78_" class="st14" d="M148.77,332.12l-10.53,100.66c-0.05,0.48,0.33,0.89,0.81,0.89l0,0c0.4,0,0.74-0.29,0.8-0.69
			l15.65-100.86H148.77z"/>
		<path id="XMLID_83_" class="st14" d="M167.89,332.12l-0.53,100.74c0,0.45,0.36,0.81,0.81,0.81h0.01c0.43,0,0.79-0.34,0.81-0.77
			l5.62-100.79H167.89z"/>
		<g>
			<defs>
				<path id="XMLID_74_" d="M145.42,333.18h55.72c2.74,0,4.97-2.22,4.97-4.97v-6.34c0-2.74-2.22-4.97-4.97-4.97h-55.72
					c-2.74,0-4.97,2.22-4.97,4.97v6.34C140.45,330.95,142.68,333.18,145.42,333.18z"/>
			</defs>
			<use xlink:href="#XMLID_74_"  style="overflow:visible;fill:#5C009E;"/>
			<clipPath id="XMLID_2_">
				<use xlink:href="#XMLID_74_"  style="overflow:visible;"/>
			</clipPath>
			<path class="st17" d="M145.42,316.9h54.45l1.62,3.41c0,0-50.28,0.87-50.28,3.78c0,2.91-0.87,6.68,9.01,6.68
				c8,0,34.85,0.38,44.79,0.53c-0.4,0.5-0.88,0.91-1.44,1.23l-2.92,0.66h-55.23c-2.74,0-4.97-2.22-4.97-4.97v-6.34
				C140.45,319.12,142.68,316.9,145.42,316.9z"/>
			
				<use xlink:href="#XMLID_74_"  style="overflow:visible;fill:none;stroke:#263238;stroke-linecap:round;stroke-linejoin:round;stroke-miterlimit:10;"/>
		</g>
		<path id="XMLID_73_" class="st13" d="M256.55,336.01c1.24-4.07,6.37-12.21-18.23-29.2c-13.04-9.01-41.24-15.93-41.24-15.93
			l-2.65-3.01c0,0-7.61,7.96-22.48,7.43c-14.87-0.53-24.07-7.08-25.84-6.55c-1.77,0.53-1.95,5.13-1.24,13.8
			c0.71,8.67,1.59,13.1,8.49,15.22c6.9,2.12,22.12,2.83,33.09,2.65c10.97-0.18,16.28-0.88,16.28-0.88s23.54,14.87,38.23,15.93"/>
		<g>
			<g id="XMLID_51_">
				<path id="XMLID_60_" class="st14" d="M202.04,238.5c1.07,0.34,33.45,6.73,36.28,6.19c2.83-0.53,10.26-6.9,12.92-6.73
					c2.65,0.18,7.96,1.06,8.49,2.48c0.53,1.42-1.24,6.19-1.24,6.19s1.77,2.65,0.88,3.89c-0.88,1.24-6.02-1.77-6.02-1.77
					s-5.84,4.25-8.49,3.36c-2.65-0.88-5.49-1.95-5.49-1.95s-41.59,2.48-42.12,2.65c-0.53,0.18-5.66,1.24-6.19-6.19
					C190.54,239.2,195.85,236.55,202.04,238.5z"/>
				<line id="XMLID_61_" class="st7" x1="258.5" y1="246.64" x2="251.24" y2="240.62"/>
				<polygon id="XMLID_58_" class="st3" points="255.84,243.98 251.95,231.77 250.36,232.12 252.3,240.97 				"/>
			</g>
			<g>
				<defs>
					<path id="XMLID_59_" d="M227.35,251.41c0,0,43.01,11.86,49.91,10.97c6.9-0.88,9.03-3.89,10.62-3.89c1.59,0,6.02,2.12,7.96,1.95
						c1.95-0.18,4.25-0.71,4.25,0.53c0,1.24-1.77,3.19-2.83,3.19c-1.06,0-5.31-0.18-5.31-0.18s8.32,2.48,8.67,4.07
						c0.35,1.59-0.71,3.01-2.3,3.36c-1.59,0.35-2.3,1.06-2.3,1.06s-0.71,2.65-1.77,3.89c-1.06,1.24-4.25,1.77-7.79,1.06
						c-3.54-0.71-9.73-3.89-11.15-4.78c-1.42-0.88-44.42-4.78-47.61-5.49c-3.19-0.71-7.08-0.71-8.32-2.83
						C218.15,262.21,227.35,251.41,227.35,251.41z"/>
				</defs>
				<use xlink:href="#XMLID_59_"  style="overflow:visible;fill:#FFFFFF;"/>
				<clipPath id="XMLID_3_">
					<use xlink:href="#XMLID_59_"  style="overflow:visible;"/>
				</clipPath>
				<path class="st18" d="M279.36,270.95c7.39,0,5.75-7.39,8.21-6.16c2.15,1.07,10.54,2.15,12.92,4.86
					c-0.35,0.87-1.15,1.53-2.17,1.76c-1.59,0.35-2.3,1.06-2.3,1.06s-0.71,2.65-1.77,3.89c-1.06,1.24-4.25,1.77-7.79,1.06
					c-3.54-0.71-9.73-3.89-11.15-4.78c-1.42-0.88-44.42-4.78-47.61-5.49c-2.57-0.57-5.61-0.68-7.33-1.83
					c-0.61-0.62-0.98-1.01-0.98-1.01l4.56-4.46C223.95,259.87,271.97,270.95,279.36,270.95z"/>
				<path class="st19" d="M279.36,270.95c7.39,0,5.75-7.39,8.21-6.16c2.15,1.07,10.54,2.15,12.92,4.86
					c-0.35,0.87-1.15,1.53-2.17,1.76c-1.59,0.35-2.3,1.06-2.3,1.06s-0.71,2.65-1.77,3.89c-1.06,1.24-4.25,1.77-7.79,1.06
					c-3.54-0.71-9.73-3.89-11.15-4.78c-1.42-0.88-44.42-4.78-47.61-5.49c-2.57-0.57-5.61-0.68-7.33-1.83
					c-0.61-0.62-0.98-1.01-0.98-1.01l4.56-4.46C223.95,259.87,271.97,270.95,279.36,270.95z"/>
				
					<use xlink:href="#XMLID_59_"  style="overflow:visible;fill:none;stroke:#263238;stroke-linecap:round;stroke-linejoin:round;stroke-miterlimit:10;"/>
			</g>
			<g>
				<g>
					<g>
						<defs>
							<path id="XMLID_56_" d="M191.07,208.06c0,0,3.89,10.62,8.85,17.7c4.96,7.08,7.08,14.51,3.89,22.48
								c-3.19,7.96-10.09,9.73-10.09,9.73s2.48,23.36,1.77,29.56c-0.71,6.19-10.26,13.45-24.6,13.98
								c-14.34,0.53-26.72-4.6-26.72-9.56c0-4.96,10.09-31.33,10.09-36.81c0-5.49-0.88-22.65,3.89-38.05
								C162.93,201.68,179.74,196.73,191.07,208.06z"/>
						</defs>
						<use xlink:href="#XMLID_56_"  style="overflow:visible;fill:#5C009E;"/>
						<clipPath id="XMLID_4_">
							<use xlink:href="#XMLID_56_"  style="overflow:visible;"/>
						</clipPath>
						<path class="st20" d="M158.15,217.08c2.57-8.3,8.64-13.55,15.46-14.87c3.29,0.73,12.27,2.84,14.52,3.36
							c1.01,0.72,1.99,1.54,2.94,2.48c0,0,3.89,10.62,8.85,17.7c3.32,4.75,5.36,9.65,5.39,14.77c-13.06,3.09-33,8.11-31.02,8.67
							c2.87,0.82,15.19-5.75,11.49-1.64c-3.69,4.1-23.39,22.98-17.65,21.34c5.75-1.64,18.47-15.19,15.19-8.62
							s-12.31,17.24-9.44,17.24s18.06-15.19,12.72-6.16c-5.34,9.03-29.55,23.39-21.75,25.45c4.5,1.18,14.05,0.87,19.6,1.81
							c-3.76,1.6-8.33,2.69-13.55,2.89c-14.34,0.53-26.72-4.6-26.72-9.56c0-4.96,10.09-31.33,10.09-36.81
							C154.26,249.65,153.37,232.48,158.15,217.08z"/>
						
							<use xlink:href="#XMLID_56_"  style="overflow:visible;fill:none;stroke:#263238;stroke-linecap:round;stroke-linejoin:round;stroke-miterlimit:10;"/>
					</g>
					<path class="st7" d="M188.89,251c0,0-13,21-32,27"/>
					<path class="st7" d="M190.39,254.5c0,0-5,16.5-18,24.5"/>
					<path class="st7" d="M187.71,241.28c0,0-11.75-5.12-16.56-8.43"/>
					<path class="st7" d="M192.53,242.49c0,0-4.22,0.9-15.06,0"/>
				</g>
				<g>
					<defs>
						<path id="XMLID_57_" d="M192.13,210.71c0,0,3.36,1.95,7.43,6.19s23.72,33.98,23.72,33.98s-5.84,12.21-7.61,12.57
							c-1.77,0.35-32.56-26.02-35.4-29.2c-2.83-3.19-4.6-9.03-3.72-11.5"/>
					</defs>
					<use xlink:href="#XMLID_57_"  style="overflow:visible;fill:#5C009E;"/>
					<clipPath id="XMLID_5_">
						<use xlink:href="#XMLID_57_"  style="overflow:visible;"/>
					</clipPath>
					<path class="st21" d="M180.27,234.25c-2.83-3.19-4.6-9.03-3.72-11.5l6.99-5.4l2.23,2.31c0,0,0.16,9.06,8.21,13.95
						s11.49,4.93,12.72,11.08c1.23,6.16-2.87,7.8,2.05,8.62c4.93,0.82,8.21,1.23,8.21,4.51c0,0.97-0.11,2.82-0.37,4.87
						c-0.37,0.43-0.69,0.71-0.93,0.76C213.9,263.8,183.11,237.43,180.27,234.25z"/>
					
						<use xlink:href="#XMLID_57_"  style="overflow:visible;fill:none;stroke:#263238;stroke-linecap:round;stroke-linejoin:round;stroke-miterlimit:10;"/>
				</g>
				<path id="XMLID_54_" class="st14" d="M230,252.65c0,0-5.49,13.1-6.73,14.51c-1.24,1.42-7.79,0.53-9.91-1.06
					c-2.12-1.59-1.77-4.78-1.77-4.78s8.14-14.34,9.03-15.04c0.88-0.71,1.24,0.88,4.96,2.12C229.3,249.65,230.71,250.18,230,252.65z"
					/>
			</g>
			<g>
				<g>
					<defs>
						<path id="XMLID_52_" d="M221.16,174.61c0,0,0.35,5.13-0.53,6.73c-0.88,1.59-3.36,3.19-3.36,5.31c0,2.12,1.77,4.96,1.24,6.55
							c-0.53,1.59-3.36,1.77-3.36,1.77s-5.31,6.55-6.9,8.85c-1.59,2.3-2.3,1.42-4.78,0.71c-2.48-0.71-7.79-5.31-10.8-8.85
							c-3.01-3.54,1.95-14.34,8.5-21.59s16.28-7.08,18.41-4.96C221.69,171.24,221.16,174.61,221.16,174.61z"/>
					</defs>
					<use xlink:href="#XMLID_52_"  style="overflow:visible;fill:#FFFFFF;"/>
					<clipPath id="XMLID_6_">
						<use xlink:href="#XMLID_52_"  style="overflow:visible;"/>
					</clipPath>
					<path class="st22" d="M207.12,169.65c0.82,4.04,1.64,10.88-0.82,15.53c-3.69,6.98-6.57,10.67-4.51,16.42
						c0.37,1.02,0.74,1.92,1.12,2.72c-2.65-1.14-7.44-5.35-10.24-8.65c-3.01-3.54,1.95-14.34,8.49-21.59
						C202.98,172.06,205.04,170.63,207.12,169.65z"/>
					<path class="st23" d="M207.12,169.65c0.82,4.04,1.64,10.88-0.82,15.53c-3.69,6.98-6.57,10.67-4.51,16.42
						c0.37,1.02,0.74,1.92,1.12,2.72c-2.65-1.14-7.44-5.35-10.24-8.65c-3.01-3.54,1.95-14.34,8.49-21.59
						C202.98,172.06,205.04,170.63,207.12,169.65z"/>
					<path id="XMLID_55_" class="st24" d="M217.26,182.22c0,0,0-2.65-3.19-0.88"/>
					<path id="XMLID_48_" class="st24" d="M214.99,184.68l-0.42,2.44c0,0-1.94,0.67-3.37-1.85"/>
					
						<use xlink:href="#XMLID_52_"  style="overflow:visible;fill:none;stroke:#263238;stroke-linecap:round;stroke-linejoin:round;stroke-miterlimit:10;"/>
				</g>
				<g>
					<defs>
						<path id="XMLID_53_" d="M226.64,166.82l0.03,0.71l0.33,8.67l-9.56,1.24l-2.12-3.72v4.07c0,0-4.07-0.53-8.67,1.24
							c-4.6,1.77-10.44,14.34-10.09,19.47c0.35,5.13,4.78,6.19,4.25,13.98c-0.53,7.79-12.39,15.57-21.41,10.62
							c-9.03-4.96-10.44-11.33-14.16-10.09c-3.72,1.24-9.38,8.85-12.92-1.95c-3.54-10.8-1.95-17.7,6.37-26.55
							c8.32-8.85,14.87-8.14,15.93-15.22c1.06-7.08,3.36-16.64,10.97-21.95c7.61-5.31,18.58-5.66,27.96-1.59
							C222.93,149.83,226.64,162.22,226.64,166.82z"/>
					</defs>
					<use xlink:href="#XMLID_53_"  style="overflow:visible;fill:#263238;"/>
					<clipPath id="XMLID_7_">
						<use xlink:href="#XMLID_53_"  style="overflow:visible;"/>
					</clipPath>
					<g class="st25">
						<path class="st26" d="M221.32,170.88c0.06,0,0.13-0.01,0.19-0.02c1.02-0.23,1.17-2,1.26-6.31c0.03-1.11,0.05-2.27,0.12-3.18
							c0.01-0.09,0.02-0.17,0.03-0.23c0.84,1.02,2.65,5.25,4.01,9.03l0.94-0.34c-3.62-10.08-4.8-9.93-5.18-9.88
							c-0.69,0.09-0.76,1-0.79,1.34c-0.07,0.95-0.1,2.11-0.12,3.24c-0.04,1.78-0.1,4.69-0.48,5.31c-0.15-0.11-0.5-0.49-1.12-1.73
							c-1.04-2.08-1.96-3.04-2.92-2.99c-1.19,0.05-1.8,1.62-2.25,2.77c-0.13,0.34-0.27,0.7-0.37,0.84c-0.44,0.12-2-1.48-2.84-2.33
							c-0.25-0.25-0.49-0.51-0.73-0.74c-0.38-0.38-0.87-0.79-1.42-0.71c-0.55,0.08-0.83,0.6-1.12,1.15
							c-0.27,0.51-0.57,1.08-1.12,1.52c-0.32,0.25-0.48,0.21-0.55,0.2c-0.72-0.17-1.59-2.11-2.6-4.36
							c-0.24-0.52-0.48-1.08-0.75-1.66c-0.33-0.72-0.78-1.55-1.52-1.48c-0.94,0.07-1.36,1.53-2,3.74c-0.52,1.8-1.12,3.85-1.99,4.97
							c-0.22,0.28-0.54,0.61-0.82,0.57c-0.78-0.12-1.64-2.43-2.16-3.82c-0.32-0.85-0.59-1.58-0.86-2.03
							c-0.28-0.47-0.64-0.56-0.85-0.55c-0.74,0.02-1.24,1.01-1.94,2.36c-0.52,1.02-1.23,2.41-1.82,2.64
							c-0.12,0.05-0.16,0.02-0.19,0.01c-0.39-0.2-0.72-1.48-1-2.52c-0.31-1.2-0.64-2.44-1.22-3.31c-0.35-0.53-0.81-0.84-1.36-0.93
							c-1.31-0.21-2.76,0.92-3.74,1.68c0.05-0.51,0.16-1.21,0.25-1.82c0.5-3.32,0.65-4.94-0.19-5.39c-0.39-0.21-0.85-0.09-1.37,0.37
							c-0.69,0.61-1.6,1.62-2.56,2.69c-1.83,2.05-4.61,5.16-5.73,4.86c-0.31-0.08-0.48-0.56-0.56-0.95l-0.98,0.21
							c0.21,0.96,0.64,1.53,1.28,1.7c1.61,0.42,3.8-1.87,6.73-5.16c0.94-1.05,1.82-2.04,2.47-2.61c0.11-0.09,0.19-0.15,0.24-0.18
							c0.22,0.63-0.15,3.09-0.33,4.3c-0.36,2.35-0.43,2.98,0.03,3.27c0.2,0.13,0.45,0.12,0.67-0.03c0.17-0.11,0.39-0.28,0.63-0.47
							c0.79-0.61,2.1-1.63,2.98-1.49c0.28,0.04,0.5,0.2,0.69,0.5c0.49,0.73,0.79,1.89,1.08,3.01c0.39,1.48,0.72,2.76,1.51,3.16
							c0.21,0.11,0.57,0.2,1.01,0.02c0.94-0.38,1.65-1.77,2.34-3.12c0.31-0.61,0.77-1.5,1.04-1.76c0,0,0,0,0,0.01
							c0.23,0.38,0.5,1.1,0.78,1.87c0.74,1.99,1.58,4.25,2.95,4.46c0.61,0.09,1.21-0.22,1.76-0.94c1-1.28,1.62-3.42,2.17-5.31
							c0.34-1.18,0.81-2.79,1.14-3.02c0,0.04,0.2,0.21,0.51,0.9c0.27,0.58,0.51,1.13,0.75,1.65c1.25,2.79,2.08,4.63,3.28,4.92
							c0.47,0.11,0.94-0.02,1.41-0.39c0.72-0.57,1.1-1.3,1.38-1.84c0.13-0.24,0.31-0.58,0.4-0.63c0,0.01,0.15,0.04,0.55,0.44
							c0.24,0.23,0.48,0.48,0.72,0.73c1.66,1.7,2.72,2.72,3.63,2.65c0.31-0.03,0.57-0.19,0.75-0.46c0.15-0.23,0.29-0.58,0.46-1.03
							c0.29-0.74,0.82-2.11,1.36-2.13c0.16-0.03,0.83,0.15,1.98,2.44C220.09,170.18,220.7,170.88,221.32,170.88z"/>
						<path class="st27" d="M201.43,211.06c0,0-2.48-9.23-4.95-6.3c-2.48,2.93-4.28,3.83-4.5,1.35c-0.23-2.48,0-6.08-2.48-2.7
							c-2.48,3.38-8.56,6.76-9.01,1.58c-0.45-5.18-1.13-12.16-4.05-8.56c-2.93,3.6-5.4,6.31-5.63,4.28
							c-0.23-2.03-2.25-3.6-3.15-1.35c-0.9,2.25-1.58,4.5-2.25-0.68c-0.68-5.18,2.48-10.81-0.9-9.46c-3.38,1.35-4.95,5.85-4.95,3.38
							c0-2.48,4.05-5.4,0.45-4.5c-3.6,0.9-4.05,3.15-4.5,1.8c-0.45-1.35,2.03-4.5-1.13-4.5"/>
					</g>
					
						<use xlink:href="#XMLID_53_"  style="overflow:visible;fill:none;stroke:#263238;stroke-linecap:round;stroke-linejoin:round;stroke-miterlimit:10;"/>
				</g>
			</g>
		</g>
		<path class="st7" d="M205.08,190.28"/>
	</g>
</g>
<g id="Ground">
	<line class="st28" x1="433.17" y1="434.36" x2="67.23" y2="434.36"/>
</g>
</svg>
