<svg width="510" height="600" fill="none" xmlns="http://www.w3.org/2000/svg"><g clip-path="url(#a)"><path d="M61.929 145.336h-5.82v383.449h5.82V145.336ZM38.34 529.949a5.651 5.651 0 0 0-5.617 5.05H85.27a5.652 5.652 0 0 0-5.617-5.05H38.34Zm.281-354.492a5.199 5.199 0 0 1 1.169-.125c.405 0 .794.047 1.168.125v-30.121h-2.337v30.121Zm71.119-39.941L89.071 61.011C88.253 58.059 85.534 56 82.465 56h-46.93c-3.07 0-5.788 2.059-6.606 5.011L8.253 135.516a6.755 6.755 0 0 0 1.153 5.959 6.822 6.822 0 0 0 5.453 2.696h88.282a6.797 6.797 0 0 0 5.453-2.696 6.753 6.753 0 0 0 1.153-5.959h-.007Zm-74.26 45.271a4.306 4.306 0 0 0 4.309 4.296 4.307 4.307 0 0 0 4.308-4.296 4.307 4.307 0 0 0-4.308-4.297 4.307 4.307 0 0 0-4.309 4.297Zm313.873 10.628h-18.031v3.793h-4.292v-7.587l-19.633-7.597v18.751h-3.07v-26.224h-15.341v19.753h-4.292v27.038h-9.466l.408-32.071h-12.934v14.219h-8.471v14.134h-5.079v3.708h3.724v4.617h-3.724v5.033h3.724v4.616h-3.724v29.441h3.724v4.617h-3.724v5.033h3.724v4.616h-3.724v8.808h100.126l.075-94.708v.01Zm-78.436 69.789h-4.605v-4.617h4.605v4.617Zm0-9.65h-4.605v-4.617h4.605v4.617Zm0-9.649h-4.605v-4.617h4.605v4.617Zm0-24.408h-4.605v-4.617h4.605v4.617Zm0-9.65h-4.605v-4.616h4.605v4.616Zm0-9.649h-4.605v-4.617h4.605v4.617Zm21.537 72.258h-4.605v-4.617h4.605v4.617Zm0-8.675h-4.605v-4.617h4.605v4.617Zm0-8.675h-4.605v-4.617h4.605v4.617Zm0-8.676h-4.605v-4.616h4.605v4.616Zm0-17.671h-4.605v-4.617h4.605v4.617Zm0-8.676h-4.605v-4.616h4.605v4.616Zm0-8.675h-4.605v-4.616h4.605v4.616Zm0-8.675h-4.605v-4.617h4.605v4.617Zm8.083 32.269h-4.605v-4.616h4.605v4.616Zm0-7.937h-4.605v-4.616h4.605v4.616Zm0-35.769h-4.605v-4.617h4.605v4.617Zm0-7.938h-4.605v-4.616h4.605v4.616Zm18.628 21.655h4.605v4.617h-4.605v-4.617Zm-3.515 34.738h-4.605v-4.616h4.605v4.616Zm0-43.706h-4.605v-4.617h4.605v4.617Zm3.515 52.675h4.605v4.617h-4.605v-4.617Zm4.605 12.677h-4.605v-4.617h4.605v4.617Zm0-43.707h-4.605v-4.617h4.605v4.617Zm23.376 58.768h-4.605v-4.693h4.605v4.693Zm0-9.385h-4.605v-4.692h4.605v4.692Zm0-9.385h-4.605v-4.692h4.605v4.692Zm0-9.384h-4.605v-4.693h4.605v4.693Zm0-15.544h-4.605v-4.692h4.605v4.692Zm0-9.384h-4.605v-4.693h4.605v4.693Zm0-9.385h-4.605v-4.692h4.605v4.692Zm-4.605-9.385v-4.692h4.605v4.692h-4.605Zm6.739 89.203H249.164v93.894c0 3.386 2.767 6.149 6.159 6.149h93.872v-4.522l.075-95.521h.01Z" fill="#000" fill-opacity=".04"/><path d="m349.277 291.809-.086 95.521v4.522h2.824V291.809h-2.738Zm64.824-154.223h-16.023v10.491h16.023v-10.491Zm-12.072 9.158v-4.816h4.814v4.816h-4.814Zm-44.318 145.065v100.033h91.976c3.393 0 6.159-2.762 6.159-6.149v-93.884h-98.135Zm-8.329-134.536-.029 34.143-.076 94.707h2.739v-128.85h-2.634Zm101.009 10.53h-8.831v-14.039h-13.502l.417 32.676h-9.883v-28.23h-4.482v-4.446h-16.023v11.201h-3.202v-11.201H374.38v7.473h-4.482v-3.964h-12.175v128.841h52.767v-3.727h4.814v3.727h17.681v-4.323h4.813v4.323h18.07v-42.08h-4.046v-4.815h4.046v-5.26h-4.046v-4.815h4.046V201.33h-4.046v-4.815h4.046v-5.26h-4.046v-4.815h4.046v-3.87h-5.449v-14.758l-.028-.009Zm-67.815 116.911h-4.813v-4.816h4.813v4.816Zm0-8.42h-4.813v-4.815h4.813v4.815Zm0-50.982h-4.813v-4.815h4.813v4.815Zm0-8.419h-4.813v-4.816h4.813v4.816Zm0-34.285h-4.813v-4.815h4.813v4.815Zm0-8.419h-4.813v-4.816h4.813v4.816Zm8.481 87.924h-4.814v-4.815h4.814v4.815Zm0-59.402h-4.814v-4.815h4.814v4.815Zm0-42.713h-4.814v-4.815h4.814v4.815Zm15.786 97.148h-4.814v-4.815h4.814v4.815Zm0-8.287h-4.814v-4.815h4.814v4.815Zm0-51.114h-4.814v-4.815h4.814v4.815Zm0-8.287h-4.814v-4.816h4.814v4.816Zm8.442 88.7h-4.813v-4.816h4.813v4.816Zm0-9.063h-4.813v-4.816h4.813v4.816Zm0-32.213h-4.813v-4.815h4.813v4.815Zm0-9.063h-4.813v-4.815h4.813v4.815Zm0-9.063h-4.813v-4.815h4.813v4.815Zm0-9.063h-4.813v-4.815h4.813v4.815Zm0-15.524h-4.813v-4.816h4.813v4.816Zm0-9.063h-4.813v-4.816h4.813v4.816Zm0-9.063h-4.813v-4.816h4.813v4.816Zm0-9.063h-4.813v-4.816h4.813v4.816Zm22.494 109.57h-4.813v-4.816h4.813v4.816Zm0-10.076h-4.813v-4.815h4.813v4.815Zm0-39.251h-4.813v-4.815h4.813v4.815Zm0-10.075h-4.813v-4.815h4.813v4.815Zm0-10.075h-4.813v-4.816h4.813v4.816Zm0-22.554h-4.813v-4.815h4.813v4.815Zm0-10.075h-4.813v-4.815h4.813v4.815Zm0-10.075h-4.813v-4.816h4.813v4.816ZM310.44 79.47c-12.393 0-22.475 10.067-22.475 22.441 0 6.329 2.634 12.043 6.869 16.12 1.498-1.296 3.62-2.318 6.614-2.318 5.249 0 8.158 4.91 9.599 8.619 7.656-.208 14.374-4.257 18.277-10.284h-3.989l.161-.842c.048-.227 1.09-5.525 3.876-10.917.947-1.835 1.98-3.444 3.089-4.834-2.075-10.246-11.162-17.984-22.03-17.984h.009Zm76.057 0c-20.325 0-25.233 25.099-25.28 25.354h-1.393c-.047-.208-.54-2.488-2.113-5.023v12.828h62.556c-1.118-5.203-8.32-33.158-33.77-33.158Z" fill="#000" fill-opacity=".04"/><path d="M327.095 112.629h24.92v-18.23c-2.056-1.088-4.633-1.807-7.855-1.807-11.522 0-16.127 16.13-17.074 20.037h.009Zm-25.649 4.503c-7.107 0-8.471 6.377-8.518 6.651h-1.393s-.692-3.614-2.777-7.124c-2.738-4.597-6.5-6.925-11.161-6.925-13.579 0-17.795 14.427-18.648 18.07h51.726c-.692-2.659-3.279-10.672-9.22-10.672h-.009Zm50.572 32.364H249.164v2.857h102.854v-2.857Zm103.828 0h-98.135v2.857h98.135v-2.857ZM356.29 291.809h-2.852v100.043h2.852V291.809Zm-2.852-5.685h2.852V21.234a95.629 95.629 0 0 0-2.852-.066v264.956Zm102.41 1.419H249.164v2.857h206.684v-2.857Z" fill="#000" fill-opacity=".04"/><path d="M427.298 40.419C405.978 21.469 379.239 12 352.5 12c-26.739 0-53.469 9.47-74.798 28.419C253.739 61.714 240 92.29 240 124.323v270.528c0 3.387 2.767 6.149 6.159 6.149h212.682c3.392 0 6.159-2.762 6.159-6.149V124.323c0-32.033-13.739-62.609-37.712-83.904h.01Zm29.97 345.284c0 4.172-3.401 7.568-7.58 7.568H255.322c-4.179 0-7.581-3.396-7.581-7.568v-261.38c0-29.829 12.801-58.304 35.116-78.133 39.701-35.287 99.585-35.287 139.296 0 22.314 19.829 35.115 48.304 35.115 78.133v261.38Z" fill="#000" fill-opacity=".04"/><path fill-rule="evenodd" clip-rule="evenodd" d="M420.598 466.615v-74.572H200.88v143.408h218.718a1 1 0 0 0 1-1v-67.836Z" fill="#fff"/><path fill-rule="evenodd" clip-rule="evenodd" d="M90.902 392.043h109.981v143.408H91.903a1 1 0 0 1-1-1V392.043Z" fill="#fff"/><path clip-rule="evenodd" d="M420.598 466.615v-74.572H200.88v143.408h218.718a1 1 0 0 0 1-1v-67.836Z" stroke="#333" stroke-width="1.5"/><path clip-rule="evenodd" d="M90.902 392.043h109.981v143.408H91.903a1 1 0 0 1-1-1V392.043Z" stroke="#333" stroke-width="1.5"/><path clip-rule="evenodd" d="M100.582 392.043v61.608l14.506-14.599 15.235 14.599 14.473-14.599 14.985 14.599v-61.608h-59.199Z" stroke="#333" stroke-width="1.5"/><path d="M20.25 535.5h470.623" stroke="#333" stroke-width="1.5"/><mask id="b" fill="#fff"><path d="m201.674 164.533-11.963 16.602 6.592 25.39 21.24 20.629s33.446 35.278 52.001 34.058c18.554-1.221 45.653-44.922 45.653-44.922l7.325-23.925-11.963-14.648s-41.015 38.329-42.48 41.747c-5.371-4.395-42.724-45.654-51.269-50.048-8.545-4.395-15.136-4.883-15.136-4.883Z"/></mask><path d="m201.674 164.533-11.963 16.602 6.592 25.39 21.24 20.629s33.446 35.278 52.001 34.058c18.554-1.221 45.653-44.922 45.653-44.922l7.325-23.925-11.963-14.648s-41.015 38.329-42.48 41.747c-5.371-4.395-42.724-45.654-51.269-50.048-8.545-4.395-15.136-4.883-15.136-4.883Z" fill="#fff" stroke="#fff" stroke-width="6" mask="url(#b)"/><path d="m201.674 164.533-11.963 16.602 6.592 25.39 21.728 19.775s32.958 36.132 51.513 34.912c18.554-1.221 45.653-44.922 45.653-44.922l7.325-23.925-11.963-14.648s-41.015 38.329-42.48 41.747c-5.371-4.395-42.724-45.654-51.269-50.048-8.545-4.395-15.136-4.883-15.136-4.883Z" stroke="#333" stroke-width="1.5"/><path d="m182.24 328.364.272-.09 46.498-4.529c2.093 3.103 3 24.5 4.5 44 0 0-30.26 9.655-45.217 11.082-25.251 2.408-42.565 10.396-64.934-1.563-9.233-4.936-15.349-11.268-15.349-11.268 2.946-13.167 1.704-29.085 1.704-29.085 15.165 2.328 46.097.202 72.501-8.539l.013-.025.012.017Z" fill="#EEE" style="mix-blend-mode:multiply"/><rect x="315.977" y="147.033" width="5.386" height="11.716" rx="2.693" transform="rotate(42.223 315.977 147.033)" fill="#fff"/><rect x="315.977" y="147.033" width="5.386" height="11.716" rx="2.693" transform="rotate(42.223 315.977 147.033)" fill="#fff" stroke="#333" stroke-width="1.5"/><rect x="250.74" y="165.365" width="63.354" height="86.6" rx="2.5" transform="rotate(-21.871 250.74 165.365)" fill="#fff" stroke="#fff" stroke-width="3"/><rect x="260.72" y="171.337" width="49.282" height="62.737" rx="2.5" transform="rotate(-21.871 260.72 171.337)" fill="#FFE600" stroke="#fff" stroke-width="3"/><rect x="258.77" y="170.504" width="52.282" height="65.737" rx="4" transform="rotate(-21.871 258.77 170.504)" stroke="#333" stroke-width="1.5"/><rect x="248.789" y="164.531" width="66.354" height="89.6" rx="4" transform="rotate(-21.871 248.789 164.531)" stroke="#333" stroke-width="1.5"/><circle cx="310.246" cy="228.653" r="2.196" transform="rotate(-21.871 310.246 228.653)" stroke="#333" stroke-width="1.5"/><path d="M248.551 227.396c-4.516 2.442-20.141 8.179-20.141 8.179l4.395 17.212s14.526-7.203 16.845-7.691c2.319-.488 4.883 1.099 10.864.977 5.982-.122 10.986-5.859 10.986-5.859 1.953 1.587-2.563 9.399 0 10.253 2.564.855 6.226-6.225 6.104-11.84.854-12.207-5.127-13.184-5.127-13.184s4.516-.244 8.789-.61c4.272-.366 7.08-3.906 5.981-5.005-1.098-1.099-7.202 0-10.986 0-3.784 0-13.427-.732-15.747 0-2.319.733-7.446 5.127-11.963 7.568Z" fill="#fff" stroke="#333" stroke-width="1.5"/><path d="M269.547 228.958c3.904-1.194 7.136.728 7.99 4.509" stroke="#333" stroke-width="1.5"/><mask id="c" fill="#fff"><path d="M109.636 176.496c16.602-12.695 40.039-15.137 40.039-15.137h35.156s13.427.977 16.601 2.93c3.174 1.953 5.37 9.277 10.742 21.484 5.372 12.207 10.742 43.945 10.742 43.945s10.497-1.465 12.695 0c2.198 1.465 5.615 4.394 7.813 12.207 2.197 7.812 1.464 18.31 0 20.019-1.465 1.709-17.822 7.934-17.822 7.934s13.915 81.42 10.009 88.256c-3.906 6.836-54.686 7.812-85.936 13.183-31.25 5.371-43.944-9.277-46.386-13.183-2.442-3.906 20.507-83.983 20.507-83.983-10.253-11.719-32.714-75.194-14.16-97.655Z"/></mask><path d="M109.636 176.496c16.602-12.695 40.039-15.137 40.039-15.137h35.156s13.427.977 16.601 2.93c3.174 1.953 5.37 9.277 10.742 21.484 5.372 12.207 10.742 43.945 10.742 43.945s10.497-1.465 12.695 0c2.198 1.465 5.615 4.394 7.813 12.207 2.197 7.812 1.464 18.31 0 20.019-1.465 1.709-17.822 7.934-17.822 7.934s13.915 81.42 10.009 88.256c-3.906 6.836-54.686 7.812-85.936 13.183-31.25 5.371-43.944-9.277-46.386-13.183-2.442-3.906 20.507-83.983 20.507-83.983-10.253-11.719-32.714-75.194-14.16-97.655Z" fill="#fff" stroke="#fff" stroke-width="6" mask="url(#c)"/><path d="M144.672 282.939c-14.283-1.099-21.118-9.033-21.118-9.033l-4.761 17.822s4.517 5.005 21.972 7.934c48.095 3.052 86.059-22.338 86.059-22.338l-1.19-7.416s-44.22 15.228-80.962 13.031Z" fill="#EEE" style="mix-blend-mode:multiply"/><path d="M124.164 272.197s6.836 7.934 21.118 9.033c36.743 2.197 80.962-13.031 80.962-13.031" stroke="#fff" stroke-width="3"/><path d="M201.432 164.289c-3.174-1.953-16.601-2.93-16.601-2.93h-35.156s-23.437 2.442-40.039 15.137c-18.554 22.461 3.907 85.936 14.16 97.655 0 0-14.604 41.891-20.193 66.349 0 9-.645 17.47 0 18.5 2.441 3.907 14.822 17.688 46.072 12.317 31.25-5.371 82.03-6.347 85.936-13.183 3.906-6.836-10.009-88.256-10.009-88.256s16.357-6.225 17.822-7.934c1.464-1.709 2.197-12.207 0-20.019-2.198-7.813-5.615-10.742-7.813-12.207-2.198-1.465-12.695 0-12.695 0s-.979-5.786-2.519-13.366a401.639 401.639 0 0 0-2.131-9.881m0 0c-.85-3.695-1.776-7.424-2.742-10.844l2.742 10.844Z" stroke="#333" stroke-width="1.5"/><path d="M123.551 273.906s6.836 7.934 21.118 9.033c36.742 2.197 80.962-13.031 80.962-13.031" stroke="#333" stroke-width="1.5"/><path d="M140.578 202.068c6.836 15.625 12.512 36.865 13.611 37.597 2.169 1.447 3.906-5.554 7.324-3.967 3.418 1.587 1.401 7.782 3.54 7.996 2.139.214 3.601-6.287 6.408-5.921 2.808.367 1.526 3.907 2.869 4.029 1.343.122 47.82-10.559 47.82-10.559" stroke="#fff" stroke-width="3"/><path d="M141.859 201.396c6.836 15.625 12.085 35.4 13.184 36.133 1.098.732 3.662-5.249 7.08-3.662 3.418 1.587 2.197 7.69 3.418 7.812 1.22.122 3.296-5.737 6.103-5.371 2.808.366 2.075 3.784 3.418 3.906 1.343.122 47.82-10.559 47.82-10.559" stroke="#333" stroke-width="1.5"/><path d="M149.186 161.847c4.687-3.515 5.534-16.438 5.371-22.46l27.832 6.836c-.391 10.546 4.72 14.811 7.324 15.624 0 0 3.906 24.17-19.531 23.926-23.438-.244-20.996-23.926-20.996-23.926Z" fill="#fff"/><path d="M149.186 161.847c4.687-3.515 5.534-16.438 5.371-22.46l27.832 6.836c-.391 10.546 4.72 14.811 7.324 15.624 0 0 3.906 24.17-19.531 23.926-23.438-.244-20.996-23.926-20.996-23.926Z" stroke="#333" stroke-width="1.5"/><rect x="321.719" y="157.721" width="5.386" height="11.716" rx="2.693" transform="rotate(66.608 321.719 157.721)" fill="#fff"/><rect x="321.719" y="157.721" width="5.386" height="11.716" rx="2.693" transform="rotate(66.608 321.719 157.721)" fill="#fff" stroke="#333" stroke-width="1.5"/><rect x="323.859" y="162.664" width="5.386" height="11.716" rx="2.693" transform="rotate(66.608 323.859 162.664)" fill="#fff"/><rect x="323.859" y="162.664" width="5.386" height="11.716" rx="2.693" transform="rotate(66.608 323.859 162.664)" fill="#fff" stroke="#333" stroke-width="1.5"/><rect x="326" y="167.607" width="5.386" height="11.716" rx="2.693" transform="rotate(66.608 326 167.607)" fill="#fff"/><rect x="326" y="167.607" width="5.386" height="11.716" rx="2.693" transform="rotate(66.608 326 167.607)" fill="#fff" stroke="#333" stroke-width="1.5"/><path d="m205.031 168.135-5.554-1.465.549 18.493 10.864 11.719 5.493-1.465 1.831-.61 1.099-6.409-14.282-20.263Z" fill="#fff"/><path d="M200.531 163.869c.725.419 1.989.802 2.867.9" stroke="#333" stroke-width="1.5"/><circle cx="294.754" cy="190.109" r="13.351" fill="#fff" stroke="#333" stroke-width="1.5"/><path d="m287.992 192.05 7.525 2.792 3.642-11.895m-180.37 170.047s7.768 4.37 23.547 4.612c15.778.243 51.948-7.039 75.252-8.01" stroke="#333" stroke-width="1.5" stroke-linejoin="round"/><path fill-rule="evenodd" clip-rule="evenodd" d="m355.07 393.206-43.864 45.928-15.939-3.139.343-13.292 29.5-45.277 29.96 15.78Z" fill="#fff"/><path clip-rule="evenodd" d="m355.07 393.206-43.864 45.928-15.939-3.139.343-13.292 29.5-45.277 29.96 15.78Z" stroke="#333" stroke-width="1.5"/><mask id="d" fill="#fff"><path fill-rule="evenodd" clip-rule="evenodd" d="M203.058 330.367s122.82-15.708 140.426-18.944c17.605-3.235 40.241-5.082 46.529 18.021 6.289 23.103-15.23 59.603-45.411 79.47 0 0-7.825 1.849-20.4-6.007-12.576-7.853-24.733-18.481-24.733-18.481l-72.518-20.328-23.893-33.731Z"/></mask><path fill-rule="evenodd" clip-rule="evenodd" d="M203.058 330.367s122.82-15.708 140.426-18.944c17.605-3.235 40.241-5.082 46.529 18.021 6.289 23.103-15.23 59.603-45.411 79.47 0 0-7.825 1.849-20.4-6.007-12.576-7.853-24.733-18.481-24.733-18.481l-72.518-20.328-23.893-33.731Z" fill="#FFE600" stroke="#fff" stroke-width="6" mask="url(#d)"/><path d="m280.998 319.5 18.857 25.41c11.886 5.129 31.65-6.537 40.143-13.41 3.157-1.964 13.287-10.762 13.287-10.762L344.998 311c-33.204 4.485-64 8.5-64 8.5Z" fill="#EEE" style="mix-blend-mode:multiply"/><path clip-rule="evenodd" d="M203.058 330.367s122.82-15.708 140.426-18.944c17.605-3.235 40.241-5.082 46.529 18.021 6.289 23.103-15.23 59.603-45.411 79.47 0 0-7.825 1.849-20.4-6.007-12.576-7.853-24.733-18.481-24.733-18.481l-72.518-20.328-23.893-33.731Z" stroke="#333" stroke-width="1.5"/><path fill-rule="evenodd" clip-rule="evenodd" d="M336.297 340.049s-8.338 8.879-16.157 21.525c-7.818 12.647-12.219 24.72-12.219 24.72" fill="#EEE" style="mix-blend-mode:multiply"/><path d="M336.297 340.049s-8.338 8.879-16.157 21.525c-7.818 12.647-12.219 24.72-12.219 24.72" stroke="#333" stroke-width="1.5"/><path fill-rule="evenodd" clip-rule="evenodd" d="M320.848 345.945s-4.786 8.883-8.435 20.583c-3.65 11.699-4.748 22.149-4.748 22.149" fill="#EEE" style="mix-blend-mode:multiply"/><path d="M320.848 345.945s-4.786 8.883-8.435 20.583c-3.65 11.699-4.748 22.149-4.748 22.149" stroke="#333" stroke-width="1.5"/><path clip-rule="evenodd" d="M203.058 330.367s122.82-15.708 140.426-18.944c17.605-3.235 40.241-5.082 46.529 18.021 6.289 23.103-15.23 59.603-45.411 79.47 0 0-7.825 1.849-20.4-6.007-12.576-7.853-24.733-18.481-24.733-18.481l-72.518-20.328-23.893-33.731Z" stroke="#333" stroke-width="1.5"/><mask id="e" fill="#fff"><path fill-rule="evenodd" clip-rule="evenodd" d="M294.271 360.059h10.088c8.868 0 16.059 7.19 16.059 16.058v1.064c0 8.87-7.191 16.06-16.059 16.06h-32.766a15.98 15.98 0 0 1-4.222-.581v.048h-2.477c-8.869 0-16.057-7.191-16.057-16.059 0-8.868 7.188-16.059 16.057-16.059h2.662a16.095 16.095 0 0 1 4.037-.531h22.678Z"/></mask><path fill-rule="evenodd" clip-rule="evenodd" d="M294.271 360.059h10.088c8.868 0 16.059 7.19 16.059 16.058v1.064c0 8.87-7.191 16.06-16.059 16.06h-32.766a15.98 15.98 0 0 1-4.222-.581v.048h-2.477c-8.869 0-16.057-7.191-16.057-16.059 0-8.868 7.188-16.059 16.057-16.059h2.662a16.095 16.095 0 0 1 4.037-.531h22.678Z" fill="#FFE600" stroke="#fff" stroke-width="6" mask="url(#e)"/><path d="M266.923 392.651c1.351.371 3.203.59 4.672.59h32.766c8.868 0 16.057-7.19 16.057-16.058v-1.066c0-8.868-7.189-16.058-16.057-16.058h-32.766c-1.666 0-3.271.252-4.782.723" stroke="#333" stroke-width="1.5"/><path d="M267.793 360.59h-2.898c-8.868 0-16.059 7.191-16.059 16.059 0 8.868 7.191 16.059 16.059 16.059h2.475m29.805.533c8.868 0 16.059-7.19 16.059-16.058v-1.066c0-8.868-7.191-16.058-16.059-16.058" stroke="#333" stroke-width="1.5"/><path clip-rule="evenodd" d="M263.195 387.005c5.572 0 10.09-4.518 10.09-10.091 0-5.574-4.518-10.092-10.09-10.092-5.573 0-10.093 4.518-10.093 10.092 0 5.573 4.52 10.091 10.093 10.091Z" stroke="#333" stroke-width="1.5"/><path d="m270.116 369.463 3.824 1.982a8.685 8.685 0 0 0 4.004.977h8.435a8.7 8.7 0 0 0 6.152-2.549l4.742-4.742m-27.156 19.181 3.824-1.982a8.661 8.661 0 0 1 4.004-.978h8.435c2.307 0 4.521.917 6.152 2.548l2.497 2.498 1.85 1.849m-19.473-19.101v15.639m6.027-15.639v15.639m6.02-15.639v15.639m7.609-24.305v32.76" stroke="#333" stroke-width="1.5"/><path fill-rule="evenodd" clip-rule="evenodd" d="M268.9 374.322c1.379-8.042 0-13.33-2.529-15.397-2.527-2.07-23.44-11.031-34.93-17.008-11.492-5.975-19.075-15.857-33.324-19.305-16.776-3.907-25.739 6.207-25.739 6.207l-19.765 5.975s-2.757 36.31-.689 41.596c2.069 5.286 6.435 13.789 13.1 13.789h91.697c3.675 0 10.801-7.814 12.179-15.857Z" fill="#fff"/><path clip-rule="evenodd" d="M268.9 374.322c1.379-8.042 0-13.33-2.529-15.397-2.527-2.07-23.44-11.031-34.93-17.008-11.492-5.975-19.075-15.857-33.324-19.305-16.776-3.907-25.739 6.207-25.739 6.207l-19.765 5.975s-2.757 36.31-.689 41.596c2.069 5.286 6.435 13.789 13.1 13.789h91.697c3.675 0 10.801-7.814 12.179-15.857Z" stroke="#333" stroke-width="1.5"/><path clip-rule="evenodd" d="M268.9 374.322c1.379-8.042 0-13.33-2.529-15.397-2.527-2.07-23.44-11.031-34.93-17.008-11.492-5.975-19.075-15.857-33.324-19.305-16.776-3.907-25.739 6.207-25.739 6.207l-19.765 5.975s-2.757 36.31-.689 41.596c2.069 5.286 6.435 13.789 13.1 13.789h91.697c3.675 0 10.801-7.814 12.179-15.857Z" stroke="#333" stroke-width="1.5"/><mask id="f" fill="#fff"><path d="M244.794 392.28H121.891c-8.932 0-14.785-11.396-17.557-18.482-1.467-3.748-1.122-19.136-.473-32.798 0 0 7.64 2.5 11.283-6 6-14 16.605-24.964 16.605-24.964s12.013-13.553 34.498-8.315c19.098 4.62 29.265 17.864 44.665 25.874 15.401 8.008 43.431 20.02 46.82 22.794 3.389 2.771 5.236 9.857 3.389 20.637-1.848 10.781-11.397 21.254-16.327 21.254Z"/></mask><path d="M244.794 392.28H121.891c-8.932 0-14.785-11.396-17.557-18.482-1.467-3.748-1.122-19.136-.473-32.798 0 0 7.64 2.5 11.283-6 6-14 16.605-24.964 16.605-24.964s12.013-13.553 34.498-8.315c19.098 4.62 29.265 17.864 44.665 25.874 15.401 8.008 43.431 20.02 46.82 22.794 3.389 2.771 5.236 9.857 3.389 20.637-1.848 10.781-11.397 21.254-16.327 21.254Z" fill="#FFE600" stroke="#fff" stroke-width="6" mask="url(#f)"/><path d="M121.732 392.764c-8.932 0-14.786-11.397-17.557-18.483 0 0 5.97 4.72 21.47 5.72s36.5 1 36.5 1l22 11.763h-62.413Z" fill="#EEE" style="mix-blend-mode:multiply"/><path d="M244.794 392.28H121.891c-8.932 0-14.785-11.396-17.557-18.482-1.467-3.748-1.122-19.136-.473-32.798 0 0 7.64 2.5 11.283-6 6-14 16.605-24.964 16.605-24.964s12.013-13.553 34.498-8.315c19.098 4.62 29.265 17.864 44.665 25.874 15.401 8.008 43.431 20.02 46.82 22.794 3.389 2.771 5.236 9.857 3.389 20.637-1.848 10.781-11.397 21.254-16.327 21.254Z" stroke="#333" stroke-width="1.5"/><path d="M140.063 359.938s9.549 13.244 20.639 20.33c11.089 7.084 22.486 11.704 22.486 11.704m-51.438-81.935s-8.008 8.934-10.473 21.563c-2.465 12.629.924 23.719.924 23.719m199.007 103.677-.92-.35a8.295 8.295 0 0 1-4.577-4.239l-8.577-18.231c-.712-1.51-.836-3.259-.352-4.919" stroke="#333" stroke-width="1.5"/><mask id="g" fill="#fff"><path fill-rule="evenodd" clip-rule="evenodd" d="m321.494 481.295-48.364-40.583c.028-.707 14.09-17.09 16.378-18.18 1.556-.742 4.613-2.631 6.408-3.764.861-.543 1.855-.679 2.692-.365 1.757.659 5.188 3.481 8.493 3.029 3.209-.439 7.349 1.02 9.575 2.993 1.118.986 1.752 2.107 1.549 3.176 0 0-.667 1.395-1.191 3.4-.543 2.087-.932 4.838-.248 7.366.669 2.477 1.543 7.111 2.364 11.386.491 2.55.962 4.973 1.362 6.736.272 1.192.508 2.084.699 2.506.212.477.769 1.309 1.511 2.335 2.508 3.473 7.097 9.168 7.36 10.845.008.039.013.077.017.115.283 2.14-.948 4.385-.948 4.385s-3.474 3.993-7.657 4.62Z"/></mask><path fill-rule="evenodd" clip-rule="evenodd" d="m321.494 481.295-48.364-40.583c.028-.707 14.09-17.09 16.378-18.18 1.556-.742 4.613-2.631 6.408-3.764.861-.543 1.855-.679 2.692-.365 1.757.659 5.188 3.481 8.493 3.029 3.209-.439 7.349 1.02 9.575 2.993 1.118.986 1.752 2.107 1.549 3.176 0 0-.667 1.395-1.191 3.4-.543 2.087-.932 4.838-.248 7.366.669 2.477 1.543 7.111 2.364 11.386.491 2.55.962 4.973 1.362 6.736.272 1.192.508 2.084.699 2.506.212.477.769 1.309 1.511 2.335 2.508 3.473 7.097 9.168 7.36 10.845.008.039.013.077.017.115.283 2.14-.948 4.385-.948 4.385s-3.474 3.993-7.657 4.62Z" fill="#FFE600" stroke="#fff" stroke-width="6" mask="url(#g)"/><path clip-rule="evenodd" d="m321.494 481.295-48.364-40.583c.028-.707 14.09-17.09 16.378-18.18 1.556-.742 4.613-2.631 6.408-3.764.861-.543 1.855-.679 2.692-.365 1.757.659 5.188 3.481 8.493 3.029 3.209-.439 7.349 1.02 9.575 2.993 1.118.986 1.752 2.107 1.549 3.176 0 0-.667 1.395-1.191 3.4-.543 2.087-.932 4.838-.248 7.366.669 2.477 1.543 7.111 2.364 11.386.491 2.55.962 4.973 1.362 6.736.272 1.192.508 2.084.699 2.506.212.477.769 1.309 1.511 2.335 2.508 3.473 7.097 9.168 7.36 10.845.008.039.013.077.017.115.283 2.14-.948 4.385-.948 4.385s-3.474 3.993-7.657 4.62Z" stroke="#333" stroke-width="1.5"/><path d="m327.294 477.492-28.137-23.61c-1.713-1.437-2.756-3.531-2.896-5.823-.142-2.289-1.186-4.382-2.898-5.819L280.7 431.615m33.464-8.804c.667 1.673.588 3.674-.439 5.445-1.024 1.764-2.052 3.298-2.716 3.681-1.765 1.015-13.161-5.174-17.977-4.438-4.811.732-3.703 3.527-1.978 7.351.616 1.36.198 3.195-.487 4.844" stroke="#333" stroke-width="1.5"/><path d="M318.328 447.074s-5.903 6.91-7.167 7.576c-.966.511-6.77-.432-11.087-.182m29.736 19.144s-12.537-9.615-13.595-11.985c-1.061-2.366 3.86-7.937 3.86-7.937m-39.398-13.913 6.026 5.057" stroke="#333" stroke-width="1.5"/><path fill-rule="evenodd" clip-rule="evenodd" d="M141.992 116.301c-1.047-.798-2.647-1.663-4.247-1.167-2.721.845-2.721 8.354-1.314 11.731 1.408 3.379 5.35 6.007 6.664 6.007m54.023-16.571c.965-.798 2.439-1.663 3.914-1.167 2.509.845 2.509 8.354 1.211 11.731-1.297 3.379-4.93 6.007-6.141 6.007" fill="#fff"/><path d="M197.118 116.301c.965-.798 2.439-1.663 3.914-1.167 2.509.845 2.509 8.354 1.211 11.731-1.297 3.379-4.93 6.007-6.141 6.007m-54.11-16.571c-1.047-.798-2.647-1.663-4.247-1.167-2.721.845-2.721 8.354-1.314 11.731 1.408 3.379 5.35 6.007 6.664 6.007" stroke="#333" stroke-width="1.5"/><path fill-rule="evenodd" clip-rule="evenodd" d="m141.528 112.096 1.441 22.138a21.008 21.008 0 0 0 5.314 12.489c5.921 6.594 15.875 16.682 21.324 16.682 5.427 0 15.314-10.009 21.238-16.604a20.995 20.995 0 0 0 5.322-12.678l1.311-22.027S199.328 79 169.43 79c-29.899 0-27.902 33.096-27.902 33.096Z" fill="#fff"/><path clip-rule="evenodd" d="m141.528 112.096 1.441 22.138a21.008 21.008 0 0 0 5.314 12.489c5.921 6.594 15.875 16.682 21.324 16.682 5.427 0 15.314-10.009 21.238-16.604a20.995 20.995 0 0 0 5.322-12.678l1.311-22.027S199.328 79 169.43 79c-29.899 0-27.902 33.096-27.902 33.096Z" stroke="#333" stroke-width="1.5"/><path fill-rule="evenodd" clip-rule="evenodd" d="M192.947 102.055c1.123-.821 2.329-1.496 3.571-2.109-2.332-9.533-8.824-21.446-26.734-21.446-17.919 0-24.356 11.927-26.643 21.462.224-.018.453.021.642.14 1.085.682 2.147 1.402 3.255 2.045 1.307.272 2.643.405 3.977.385.667-.01 1.344-.059 1.969-.291.496-.184.944-.479 1.369-.795a13.987 13.987 0 0 0 3.117-3.219c.168-.241.356-.507.643-.57.163-.036.333.002.496.039 3.813.865 7.933 1.377 11.535-.145.56-.236 1.187-.907 1.72-.894.706.017 1.638.928 2.242 1.257 1.944 1.058 4.424 1.059 6.369.002.46-.25 1.11-.523 1.43-.109.101.132.132.302.171.463.491 2.027 2.537 3.319 4.566 3.805 2.112.505 4.374.361 6.405-.409-.051.128-.075.259-.1.389Z" fill="#EEE" style="mix-blend-mode:multiply"/><mask id="h" fill="#fff"><path fill-rule="evenodd" clip-rule="evenodd" d="M141.538 123.451a149.296 149.296 0 0 1-2.813-20.306l-.167-2.406s-8.5-3.754-11.217-10.512c-2.717-6.758-2.016-11.591-.526-14.453 1.49-2.863 6.353-3.707 7.011-4.694.657-.985-.263-11.261 5.433-15.391 4.689-3.895 9.816-1.596 11.393-2.252 1.577-.657 3.265-6.47 6.704-7.696 3.549-1.268 5.653.468 6.967.938 1.315.469 3.462-3.144 6.836-2.628 3.374.517 3.242 2.44 4.381 3.192 1.666.609 6.661-3.615 11.394.375 2.891 2.487 2.541 5.115 2.979 6.194.438 1.079 6.704-2.158 12.444 4.317 5.741 6.476 4.426 12.107 4.558 13.515.131 1.408 7.624 3.098 7.229 12.81-.394 9.714-11.962 16.097-11.962 16.097l-.124 1.459a136.789 136.789 0 0 1-3.557 21.441l-2.892-.375-2.541-25.153s-4.119 1.314-6.836.188c-2.716-1.126-4.206-4.693-4.206-4.693s-2.453 1.715-4.689 1.595c-2.629-.141-5.389-2.675-5.389-2.675s-1.096 2.159-5.521 2.394c-4.426.234-8.063-1.314-8.063-1.314s-1.49 3.285-4.206 4.693c-2.717 1.407-7.012 0-7.012 0l-2.19 25.528-3.418-.188Z"/></mask><path fill-rule="evenodd" clip-rule="evenodd" d="M141.538 123.451a149.296 149.296 0 0 1-2.813-20.306l-.167-2.406s-8.5-3.754-11.217-10.512c-2.717-6.758-2.016-11.591-.526-14.453 1.49-2.863 6.353-3.707 7.011-4.694.657-.985-.263-11.261 5.433-15.391 4.689-3.895 9.816-1.596 11.393-2.252 1.577-.657 3.265-6.47 6.704-7.696 3.549-1.268 5.653.468 6.967.938 1.315.469 3.462-3.144 6.836-2.628 3.374.517 3.242 2.44 4.381 3.192 1.666.609 6.661-3.615 11.394.375 2.891 2.487 2.541 5.115 2.979 6.194.438 1.079 6.704-2.158 12.444 4.317 5.741 6.476 4.426 12.107 4.558 13.515.131 1.408 7.624 3.098 7.229 12.81-.394 9.714-11.962 16.097-11.962 16.097l-.124 1.459a136.789 136.789 0 0 1-3.557 21.441l-2.892-.375-2.541-25.153s-4.119 1.314-6.836.188c-2.716-1.126-4.206-4.693-4.206-4.693s-2.453 1.715-4.689 1.595c-2.629-.141-5.389-2.675-5.389-2.675s-1.096 2.159-5.521 2.394c-4.426.234-8.063-1.314-8.063-1.314s-1.49 3.285-4.206 4.693c-2.717 1.407-7.012 0-7.012 0l-2.19 25.528-3.418-.188Z" fill="#FFE600" stroke="#fff" stroke-width="6" mask="url(#h)"/><path clip-rule="evenodd" d="M141.538 123.451a149.296 149.296 0 0 1-2.813-20.306l-.167-2.406s-8.5-3.754-11.217-10.512c-2.717-6.758-2.016-11.591-.526-14.453 1.49-2.863 6.353-3.707 7.011-4.694.657-.985-.263-11.261 5.433-15.391 4.689-3.895 9.816-1.596 11.393-2.252 1.577-.657 3.265-6.47 6.704-7.696 3.549-1.268 5.653.468 6.967.938 1.315.469 3.462-3.144 6.836-2.628 3.374.517 3.242 2.44 4.381 3.192 1.666.609 6.661-3.615 11.394.375 2.891 2.487 2.541 5.115 2.979 6.194.438 1.079 6.704-2.158 12.444 4.317 5.741 6.476 4.426 12.107 4.558 13.515.131 1.408 7.624 3.098 7.229 12.81-.394 9.714-11.962 16.097-11.962 16.097l-.124 1.459a136.789 136.789 0 0 1-3.557 21.441l-2.892-.375-2.541-25.153s-4.119 1.314-6.836.188c-2.716-1.126-4.206-4.693-4.206-4.693s-2.453 1.715-4.689 1.595c-2.629-.141-5.389-2.675-5.389-2.675s-1.096 2.159-5.521 2.394c-4.426.234-8.063-1.314-8.063-1.314s-1.49 3.285-4.206 4.693c-2.717 1.407-7.012 0-7.012 0l-2.19 25.528-3.418-.188Z" stroke="#333" stroke-width="1.5"/><path d="M175.5 137a19.124 19.124 0 0 1-10.542.478l-1.458-.348" stroke="#333" stroke-width="1.5"/><mask id="i" fill="#fff"><path fill-rule="evenodd" clip-rule="evenodd" d="M154.499 132c6.629 0 12.001-5.372 12.001-11.999 0-6.629-5.372-12.001-12.001-12.001-6.627 0-11.999 5.372-11.999 12.001 0 6.627 5.372 11.999 11.999 11.999Zm30 0c6.629 0 12.001-5.372 12.001-11.999 0-6.629-5.372-12.001-12.001-12.001-6.627 0-11.999 5.372-11.999 12.001 0 6.627 5.372 11.999 11.999 11.999Z"/></mask><path fill-rule="evenodd" clip-rule="evenodd" d="M154.499 132c6.629 0 12.001-5.372 12.001-11.999 0-6.629-5.372-12.001-12.001-12.001-6.627 0-11.999 5.372-11.999 12.001 0 6.627 5.372 11.999 11.999 11.999Zm30 0c6.629 0 12.001-5.372 12.001-11.999 0-6.629-5.372-12.001-12.001-12.001-6.627 0-11.999 5.372-11.999 12.001 0 6.627 5.372 11.999 11.999 11.999Z" fill="#fff"/><path d="M163.5 120.001a9 9 0 0 1-9.001 8.999v6c8.285 0 15.001-6.715 15.001-14.999h-6ZM154.499 111a9 9 0 0 1 9.001 9.001h6c0-8.285-6.716-15.001-15.001-15.001v6Zm-8.999 9.001a9 9 0 0 1 8.999-9.001v-6c-8.284 0-14.999 6.716-14.999 15.001h6Zm8.999 8.999a8.999 8.999 0 0 1-8.999-8.999h-6c0 8.283 6.716 14.999 14.999 14.999v-6Zm39.001-8.999a9 9 0 0 1-9.001 8.999v6c8.285 0 15.001-6.715 15.001-14.999h-6ZM184.499 111a9 9 0 0 1 9.001 9.001h6c0-8.285-6.716-15.001-15.001-15.001v6Zm-8.999 9.001a9 9 0 0 1 8.999-9.001v-6c-8.284 0-14.999 6.716-14.999 15.001h6Zm8.999 8.999a8.999 8.999 0 0 1-8.999-8.999h-6c0 8.283 6.716 14.999 14.999 14.999v-6Z" fill="#fff" mask="url(#i)"/><path clip-rule="evenodd" d="M166.5 120.001c0 6.627-5.372 11.999-12.001 11.999-6.627 0-11.999-5.372-11.999-11.999 0-6.629 5.372-12.001 11.999-12.001 6.629 0 12.001 5.372 12.001 12.001Zm30 0c0 6.627-5.372 11.999-12.001 11.999-6.627 0-11.999-5.372-11.999-11.999 0-6.629 5.372-12.001 11.999-12.001 6.629 0 12.001 5.372 12.001 12.001Z" stroke="#333" stroke-width="1.5"/><path d="M166.5 120s3.112-4.5 6 0" stroke="#333" stroke-width="1.5"/></g><defs><clipPath id="a"><path fill="#fff" d="M0 0h510v600H0z"/></clipPath></defs></svg>