<svg fill="none" viewBox="0 0 89 83" xmlns="http://www.w3.org/2000/svg"><path d="M2 58.731v-3.45c.35-12.66 4.562-18.654 8.675-24.506 2.214-3.15 4.4-6.26 5.937-10.346C20.89 9.069 29.293 6.997 33.984 6.999c13.551.004 18.784 4.433 27.49 14.395 5.283 6.047 9.588 7.59 13.238 8.898 1.99.713 3.785 1.357 5.438 2.622 3.409 2.609 6.16 8.07 6.85 14.418v6.142c-.683 6.237-3.53 12.708-9.67 17.83-4.252 3.546-8.196 6.419-11.932 8.697H15.716C7.916 74.966 2.296 67.16 2 58.73z" clip-rule="evenodd" fill="#000" fill-opacity=".04" fill-rule="evenodd"/><path d="M32.599 31.119v-9.672c0-3.561 2.919-6.448 6.52-6.448h3.565c3.6 0 6.52 2.887 6.52 6.448v9.672" stroke="#333" stroke-width="1.5"/><mask id="a" fill="#fff"><path d="M10.199 80.376c0 .141.116.256.259.256 0 0 18.472.037 18.572.127 0 0 0 .001 0 0-.03-.283 1.035-54.755 1.035-54.755l-8.97.041a.26.26 0 0 0-.43.002h-.095c-.021 0 .02.006.087.013a.253.253 0 0 0-.03.08L10.204 80.328a.248.248 0 0 0-.004.048zM20.657 26.06c.16.016.471.037.444-.006a.288.288 0 0 0-.006-.01l-.43.003a.292.292 0 0 0-.008.013zm10.1-.013a.5.5 0 0 0-.5.489l-1.215 53.712a.5.5 0 0 0 .501.511l48.85-.124a.5.5 0 0 0 .495-.562L72.13 26.486a.5.5 0 0 0-.496-.438H30.757z" clip-rule="evenodd" fill-rule="evenodd"/></mask><path d="M10.199 80.376c0 .141.116.256.259.256 0 0 18.472.037 18.572.127 0 0 0 .001 0 0-.03-.283 1.035-54.755 1.035-54.755l-8.97.041a.26.26 0 0 0-.43.002h-.095c-.021 0 .02.006.087.013a.253.253 0 0 0-.03.08L10.204 80.328a.248.248 0 0 0-.004.048zM20.657 26.06c.16.016.471.037.444-.006a.288.288 0 0 0-.006-.01l-.43.003a.292.292 0 0 0-.008.013zm10.1-.013a.5.5 0 0 0-.5.489l-1.215 53.712a.5.5 0 0 0 .501.511l48.85-.124a.5.5 0 0 0 .495-.562L72.13 26.486a.5.5 0 0 0-.496-.438H30.757z" clip-rule="evenodd" fill="#FFE600" fill-rule="evenodd"/><path d="m10.458 80.632.006-3h-.006v3zm18.572.128-2.76-1.176-.003.007-.003.008 2.766 1.161zm1.035-54.756 3 .059.06-3.073-3.074.014.014 3zm-9.135-.067.554-2.948-.554 2.948zm-.36.11v3h.014l-.014-3zm.057.094-2.946-.567 2.946.567zM10.204 80.329l2.946.566-2.946-.566zm10.898-54.274 2.547-1.585-2.547 1.585zm9.155.482-2.999-.068 3 .068zm-1.215 53.712-2.999-.068 3 .068zm.501.51.008 3-.008-3zm48.85-.123-.007-3 .007 3zm.495-.563 2.977-.375-2.977.375zm-6.757-53.587-2.977.375 2.977-.375zM10.459 77.633a2.743 2.743 0 0 1 2.74 2.744h-6a3.258 3.258 0 0 0 3.26 3.256v-6zm20.575.894c-.44-.394-.883-.552-.97-.584a3.034 3.034 0 0 0-.882-.184 8.2 8.2 0 0 0-.266-.013 39.101 39.101 0 0 0-.656-.017c-.53-.01-1.27-.018-2.146-.026-1.753-.017-4.077-.03-6.393-.04a4037.652 4037.652 0 0 0-8.461-.028l-.587-.001h-.207l-.007 3-.006 3h.794a5357.32 5357.32 0 0 1 8.448.029c2.314.01 4.627.023 6.365.04.87.007 1.589.016 2.089.025.253.005.434.01.547.014l.06.002s-.056-.003-.136-.014a2.878 2.878 0 0 1-.625-.155c-.086-.032-.528-.189-.966-.581l4.006-4.467zm-4.986 2.556c.004.036.012.102.026.185a3.002 3.002 0 0 0 2.687 2.481c1.426.129 2.293-.736 2.554-1.042.293-.344.435-.672.482-.785L26.265 79.6c.047-.113.19-.44.482-.784.261-.307 1.128-1.172 2.554-1.043a3 3 0 0 1 2.556 1.982 2.929 2.929 0 0 1 .156.682l-5.965.646zm5.743.854a3 3 0 0 0-.756-3.41l-4.009 4.465a2.998 2.998 0 0 1-.755-3.407l5.52 2.352zm-1.725-55.932-3-.058v.039l-.003.117-.009.455-.033 1.73a77924.1 77924.1 0 0 0-.841 43.743 5390.624 5390.624 0 0 0-.142 8.024 111.325 111.325 0 0 0-.008.726 4.32 4.32 0 0 0 .005.137 5.5 5.5 0 0 0 .013.165l5.965-.644c.023.206.017.42.017.274v-.104l.007-.465.029-1.765c.026-1.515.065-3.664.113-6.237.096-5.146.226-11.98.357-18.807a89729.299 89729.299 0 0 1 .517-26.659l.01-.455.001-.117.001-.03v-.008l-3-.06zm-8.956 3.041 8.97-.04-.028-6-8.97.04.028 6zm-.734-.16a2.74 2.74 0 0 1-1.757-1.148l4.955-3.384a3.26 3.26 0 0 0-2.089-1.364l-1.11 5.896zm2.783-1.168a2.74 2.74 0 0 1-2.783 1.168l1.11-5.896a3.26 3.26 0 0 0-3.312 1.389l4.985 3.339zm-2.574 1.33h.095l-.027-6h-.095l.027 6zm.374-5.971.056.007a2.73 2.73 0 0 1 .223.042c.035.008.167.038.33.096a2.995 2.995 0 0 1 1.85 1.897 3 3 0 0 1-1.294 3.494c-.44.267-.842.35-.918.367-.25.055-.452.063-.481.065-.07.003-.126.004-.154.004v-6c-.03 0-.087 0-.16.004-.031.002-.234.01-.485.065-.076.017-.478.1-.919.368a3.001 3.001 0 0 0 1.35 5.56l.602-5.97zm2.615 3.631a2.74 2.74 0 0 1-.326.867l-5.18-3.027c-.183.313-.315.66-.386 1.027l5.892 1.133zM13.151 80.896l10.423-54.188-5.892-1.133L7.26 79.763l5.892 1.133zm.05-.518c0 .174-.017.348-.05.519L7.26 79.763a3.253 3.253 0 0 0-.058.615h6zm5.355-52.737a2.992 2.992 0 0 1 1.066-4.184c.527-.298 1.012-.348 1.035-.352a2.546 2.546 0 0 1 .353-.023c.02 0-.01-.001-.051-.005l-.601 5.97c.119.012.326.03.534.033.068.002.31.007.586-.031.05-.007.556-.063 1.096-.368a3.008 3.008 0 0 0 1.076-4.21l-5.094 3.17zm.064.098a2.937 2.937 0 0 1-.064-.098l5.094-3.17a3.01 3.01 0 0 0-.076-.116l-4.954 3.384zm2.06 1.31.43-.002-.027-6-.43.002.028 6zm2.569-1.473a2.715 2.715 0 0 1-.09.142l-4.985-3.34a3.182 3.182 0 0 0-.106.17l5.18 3.028zm10.009-.97a2.5 2.5 0 0 1-2.5 2.443v-6a3.5 3.5 0 0 0-3.499 3.42l5.999.137zm-1.216 53.71 1.216-53.71-5.999-.136-1.215 53.71 5.998.137zm-2.505-2.556a2.5 2.5 0 0 1 2.505 2.557l-5.998-.136a3.5 3.5 0 0 0 3.508 3.58l-.015-6zm48.85-.124-48.85.124.015 6 48.85-.124-.015-6zm-2.474 2.813a2.5 2.5 0 0 1 2.474-2.813l.015 6a3.5 3.5 0 0 0 3.463-3.938l-5.952.75zm-6.758-53.587 6.758 53.587 5.952-.75-6.757-53.588-5.953.75zm2.48 2.187a2.5 2.5 0 0 1-2.48-2.187l5.953-.75a3.5 3.5 0 0 0-3.472-3.063v6zm-40.876 0h40.877v-6H30.759v6z" fill="#fff" mask="url(#a)"/><path d="M70.684 80.223a.254.254 0 0 1-.054.358.26.26 0 0 1-.154.05H10.458a.257.257 0 0 1-.254-.303l7.065-36.73M34.98 26.047H20.57c-.073 0 .57.068.531.006a.259.259 0 0 0-.474.086l-2.73 14.19" stroke="#333" stroke-width="1.5"/><path d="M20.566 26.255a.259.259 0 0 1 .474-.086l3.601 5.787a.26.26 0 0 0 .42.03l4.732-5.618a.26.26 0 0 1 .407.012m46.871 39.279-4.94-39.175a.5.5 0 0 0-.496-.437H30.758a.5.5 0 0 0-.5.488l-1.215 53.711a.5.5 0 0 0 .5.512l48.85-.124a.5.5 0 0 0 .496-.563l-.684-5.425m-.722-5.72.31 2.452" stroke="#333" stroke-width="1.5"/><path d="M44.552 31.119v-9.672c0-3.561 2.919-6.448 6.52-6.448h3.565c3.6 0 6.52 2.887 6.52 6.448v9.672" stroke="#333" stroke-width="1.5"/><path d="M70.824 38.285a.5.5 0 0 1 .353.145l12.552 12.478a.5.5 0 0 1-.001.71L73.114 62.116a.5.5 0 0 1-.704 0L59.84 49.62a.5.5 0 0 1-.146-.325l-.623-10.481a.5.5 0 0 1 .499-.53h11.254z" clip-rule="evenodd" fill="#fff" fill-rule="evenodd" stroke="#333" stroke-width="1.5"/><ellipse cx="66.06" cy="44.742" rx="2.306" ry="2.281" fill="#fff" stroke="#333" stroke-width="1.5"/><path d="M57.227 26.002c2.587-3.582 6.431-1.453 7.79 1.095 2.038 3.823 2.548 8.92 1.02 17.84" stroke="#333" stroke-width="1.5"/><path d="m76.974 2.295 1.479-.082c.395-.02.765.196.946.55l.662 1.309c.192.379.501.685.881.872l1.31.663a.998.998 0 0 1 .541.945l-.08 1.479c-.025.42.096.848.323 1.204l.808 1.22c.21.331.21.759-.008 1.09l-.8 1.22a1.994 1.994 0 0 0-.324 1.204l.081 1.478c.019.397-.197.768-.55.946l-1.309.662c-.38.19-.69.5-.88.881l-.663 1.309a.99.99 0 0 1-.946.542l-1.471-.081a2.02 2.02 0 0 0-1.204.323l-1.22.808a.992.992 0 0 1-1.092 0l-1.228-.808a1.974 1.974 0 0 0-1.1-.332c-.032 0-.064 0-.104.009l-1.48.08a1.006 1.006 0 0 1-.945-.55l-.663-1.308c-.191-.381-.5-.69-.88-.88l-1.31-.663a.99.99 0 0 1-.541-.945l.08-1.47a2.02 2.02 0 0 0-.323-1.205l-.8-1.22a.99.99 0 0 1 0-1.09l.808-1.228a1.96 1.96 0 0 0 .324-1.204l-.081-1.47a.992.992 0 0 1 .55-.946l1.3-.663c.38-.19.69-.5.881-.88l.663-1.309c.18-.354.55-.569.946-.55l1.479.081c.425.024.847-.089 1.204-.323l1.22-.8a.992.992 0 0 1 1.091 0l1.22.808c.358.234.78.347 1.205.324z" fill="#fff"/><path d="m78.445 19.787-1.47-.081a2.02 2.02 0 0 0-1.205.323l-1.22.808a.992.992 0 0 1-1.092 0l-1.228-.808a1.974 1.974 0 0 0-1.1-.331c-.031 0-.064 0-.104.008l-1.48.081a1.006 1.006 0 0 1-.945-.55l-.662-1.309a1.979 1.979 0 0 0-.881-.88l-1.31-.663a.99.99 0 0 1-.541-.945l.08-1.47a2.02 2.02 0 0 0-.323-1.205l-.8-1.22a.99.99 0 0 1 0-1.09l.808-1.228a1.96 1.96 0 0 0 .324-1.204l-.081-1.47a.992.992 0 0 1 .55-.946l1.3-.663c.381-.19.69-.5.882-.88l.662-1.309c.18-.354.55-.569.946-.55l1.479.082a2 2 0 0 0 1.204-.324l1.22-.8a.992.992 0 0 1 1.092 0l1.22.808a2 2 0 0 0 1.204.324l1.48-.082c.394-.02.764.196.945.55l.662 1.31c.192.378.502.684.881.871l1.31.663a.998.998 0 0 1 .541.945l-.08 1.479c-.025.42.096.848.323 1.204l.808 1.22c.21.331.21.759-.008 1.09l-.8 1.22a1.994 1.994 0 0 0-.324 1.205l.081 1.478c.017.392-.195.763-.549.94l-1.3.654c-.378.19-.686.5-.877.88l-.665 1.32a.997.997 0 0 1-.946.543" stroke="#333" stroke-linecap="round" stroke-linejoin="round" stroke-width="1.5"/><path d="M69.306 14v-.896c2.184-1.608 2.824-2.16 2.824-2.816 0-.464-.424-.696-.864-.696-.608 0-1.072.24-1.432.616l-.648-.752c.52-.6 1.312-.872 2.056-.872 1.136 0 2.04.64 2.04 1.704 0 .912-.752 1.704-2.136 2.712h2.176v1h-4.016zm8.429 0-1.336-1.952L75.055 14h-1.352l1.936-2.736-1.816-2.6h1.352l1.224 1.824 1.208-1.824h1.368l-1.816 2.592L79.095 14h-1.36z" fill="#333"/><mask id="b" fill="#fff"><path d="M51.905 74.417s-2.649-13.23-3.33-17.067c-.683-3.837-5.243-9.088-10.407-9.088H19.78c-5.162 0-9.4 4.84-10.406 9.088-1.007 4.248-3.32 17.067-3.32 17.067-.553 2.846 1.35 5.605 4.266 6.146 2.622.492 5.213-.975 6.08-3.445 1.764-4.997 6.573-8.355 11.973-8.355h1.222c5.4 0 10.21 3.358 11.973 8.355.867 2.47 3.46 3.937 6.08 3.445 2.898-.55 4.81-3.3 4.257-6.146z"/></mask><path d="M51.905 74.417s-2.649-13.23-3.33-17.067c-.683-3.837-5.243-9.088-10.407-9.088H19.78c-5.162 0-9.4 4.84-10.406 9.088-1.007 4.248-3.32 17.067-3.32 17.067-.553 2.846 1.35 5.605 4.266 6.146 2.622.492 5.213-.975 6.08-3.445 1.764-4.997 6.573-8.355 11.973-8.355h1.222c5.4 0 10.21 3.358 11.973 8.355.867 2.47 3.46 3.937 6.08 3.445 2.898-.55 4.81-3.3 4.257-6.146z" fill="#fff" mask="url(#b)" stroke="#fff" stroke-width="6"/><mask id="c" fill="#fff"><path d="M23.18 58.541c0 2.68-2.2 4.859-4.904 4.859s-4.905-2.18-4.905-4.859 2.2-4.86 4.905-4.86 4.904 2.18 4.904 4.86z"/></mask><path d="M23.18 58.541c0 2.68-2.2 4.859-4.904 4.859s-4.905-2.18-4.905-4.859 2.2-4.86 4.905-4.86 4.904 2.18 4.904 4.86z" fill="#FFE600" mask="url(#c)" stroke="#fff" stroke-width="6"/><path d="M23.18 58.541c0 2.68-2.2 4.859-4.904 4.859s-4.905-2.18-4.905-4.859 2.2-4.86 4.905-4.86 4.904 2.18 4.904 4.86z" stroke="#333" stroke-width="1.5"/><path d="M51.905 74.417s-2.649-13.23-3.33-17.067c-.683-3.837-5.243-9.088-10.407-9.088H19.78c-5.162 0-9.4 4.84-10.406 9.088-1.007 4.248-3.32 17.067-3.32 17.067-.553 2.846 1.35 5.605 4.266 6.146 2.622.492 5.213-.975 6.08-3.445 1.764-4.997 6.573-8.355 11.973-8.355h1.222c5.4 0 10.21 3.358 11.973 8.355.867 2.47 3.46 3.937 6.08 3.445 2.898-.55 4.81-3.3 4.257-6.146z" stroke="#333" stroke-width="1.5"/><path d="M39.176 73.149s2.84 0 6.204-2.52c3.365-2.52 4.493-6.195 4.493-6.195m-31.08 8.714s-2.89 0-6.316-2.566c-3.426-2.565-4.574-6.307-4.574-6.307" stroke="#333" stroke-width="1.5"/><path d="M40.46 56.576c-.705 0-1.278-.57-1.278-1.27s.573-1.268 1.278-1.268 1.278.569 1.278 1.269-.573 1.269-1.278 1.269zm0 7.064c-.705 0-1.278-.57-1.278-1.27s.573-1.268 1.278-1.268 1.278.569 1.278 1.269-.573 1.269-1.278 1.269zm2.309-4.802c0-.7.573-1.27 1.278-1.27s1.278.57 1.278 1.27-.574 1.27-1.278 1.27-1.278-.57-1.278-1.27zm-7.176 0c0-.7.573-1.27 1.278-1.27s1.278.57 1.278 1.27-.574 1.27-1.278 1.27-1.278-.57-1.278-1.27z" fill="#333"/><path transform="scale(1.0051 .99487) rotate(-45 93.06 1.721)" stroke="#333" stroke-linecap="round" stroke-width="1.5" d="M.75-.75h2.464"/><path transform="scale(1.0051 .99487) rotate(-45 95.152 -3.331)" stroke="#333" stroke-linecap="round" stroke-width="1.5" d="M.75-.75h2.464"/><path stroke="#333" stroke-width="1.5" d="M88 81.022H1"/></svg>