<svg fill="none" viewBox="0 0 89 81" xmlns="http://www.w3.org/2000/svg"><mask id="a" x="2" y="3" width="86" height="77" style="mask-type:alpha" maskUnits="userSpaceOnUse"><path fill="#D9D9D9" d="M2 3h85.703v76.091H2z"/></mask><g mask="url(#a)"><path d="M84.438 41.161C78.71 15.051 68.994 10.872 62.603 9.479c-6.264-1.365-13.931 2.253-18.759 8.863-5.3 7.257-8.717 10.46-14.591 13.225-5.61 2.64-17.462 4.368-22.565 15.476-6.127 13.336-2.204 27.332 7.86 36.238 11.248 9.953 32.138 16.617 51.639 6.15 19.5-10.465 21.34-34.187 18.25-48.271z" clip-rule="evenodd" fill="#000" fill-opacity=".04" fill-rule="evenodd"/></g><path d="M57 58.88V7.413c0-2.436-2.014-4.412-4.497-4.412H19.497C17.014 3 15 4.977 15 7.413v66.374C15 76.667 17.379 79 20.313 79h31.372C54.62 79 57 76.666 57 73.787V58.88z" clip-rule="evenodd" fill="#fff" fill-rule="evenodd"/><path d="M33 74h6M31.398 7.555h10" stroke="#333" stroke-linecap="round" stroke-width="1.5"/><path d="M51.686 76.398H20.314C17.379 76.398 15 73.982 15 71v2.602C15 76.583 17.38 79 20.314 79h31.372C54.621 79 57 76.583 57 73.602V71c0 2.981-2.38 5.398-5.314 5.398Z" clip-rule="evenodd" fill="#eee" fill-rule="evenodd" style="mix-blend-mode:multiply"/><path fill="#FFE600" stroke="#fff" stroke-width="3" d="M16.5 13h39v54.984h-39z"/><path d="M15 18V7.413c0-2.437 2.014-4.412 4.498-4.412h33.006C54.986 3 57 4.977 57 7.413v66.374C57 76.667 54.62 79 51.687 79H20.315C17.38 79 15 76.666 15 73.787V22m0 47.5h41.731m-.001-58H15m10 39.182h23M30.144 56.4h12.71" stroke="#333" stroke-width="1.5"/><path d="M36.446 45.877c-6.317 0-11.439-5.121-11.439-11.439s5.121-11.439 11.439-11.439 11.439 5.121 11.439 11.439-5.121 11.439-11.439 11.439z" fill="#fff" stroke="#333" stroke-width="1.5"/><path d="M29.457 44.015v-.776a3.828 3.828 0 0 1 3.828-3.829h6.3a3.848 3.848 0 0 1 3.848 3.849v.776" stroke="#333" stroke-width="1.5"/><path d="M36.452 27.703a4.706 4.706 0 1 1 0 9.412 4.706 4.706 0 0 1 0-9.412z" clip-rule="evenodd" stroke="#333" stroke-width="1.5"/><path d="M54.172 49.231v-6.067c0-5.584 4.503-10.11 10.058-10.11s10.058 4.526 10.058 10.11v6.067l-3.445-.014V43.39c0-3.671-2.96-6.647-6.613-6.647-3.653 0-6.614 2.976-6.614 6.647v5.827l-3.445.014z" clip-rule="evenodd" fill="#fff" fill-rule="evenodd" stroke="#333" stroke-width="1.5"/><mask id="b" fill="#fff"><path d="M76.263 48.262c.83 0 1.583.34 2.127.892s.882 1.312.882 2.153v24.235c0 .841-.337 1.603-.881 2.154s-1.297.892-2.128.892H52.2c-.83 0-1.583-.341-2.127-.892a3.055 3.055 0 0 1-.882-2.154V51.307c0-.84.337-1.602.882-2.153a2.981 2.981 0 0 1 2.127-.892h24.063z" clip-rule="evenodd" fill-rule="evenodd"/></mask><path d="M76.263 48.262c.83 0 1.583.34 2.127.892s.882 1.312.882 2.153v24.235c0 .841-.337 1.603-.881 2.154s-1.297.892-2.128.892H52.2c-.83 0-1.583-.341-2.127-.892a3.055 3.055 0 0 1-.882-2.154V51.307c0-.84.337-1.602.882-2.153a2.981 2.981 0 0 1 2.127-.892h24.063z" clip-rule="evenodd" fill="#fff" fill-rule="evenodd" mask="url(#b)" stroke="#fff" stroke-width="6"/><path d="M79.73 57.296v-5.989c0-1.939-1.553-3.51-3.469-3.51H52.2c-1.916 0-3.469 1.571-3.469 3.51v24.235c0 1.94 1.553 3.51 3.468 3.51h24.063c1.916 0 3.469-1.57 3.469-3.51v-7.309m0-6.812v2.875" stroke="#333" stroke-width="1.5"/><path d="M65.763 64.262a3.556 3.556 0 0 0 2.011-3.207 3.548 3.548 0 0 0-3.54-3.555 3.548 3.548 0 0 0-3.54 3.555c0 1.413.82 2.634 2.01 3.207l-2.048 5.088h7.155l-2.048-5.088z" fill="#fff" stroke="#333" stroke-width="1.5"/><path stroke="#333" stroke-width="1.5" d="M88 79.022H1"/></svg>