<svg fill="none" viewBox="0 0 89 81" xmlns="http://www.w3.org/2000/svg"><g clip-path="url(#a)"><path d="M75.44 78.486H13.173a41.913 41.913 0 0 1-1.466-1.055C.782 69.205-3.477 56.277 3.174 43.96c4.378-8.11 13.333-10.807 19.902-12.785 1.742-.524 3.316-.998 4.593-1.51 6.376-2.553 10.085-5.512 15.838-12.215 5.24-6.106 13.563-9.447 20.363-8.187 6.937 1.286 17.484 5.146 23.702 29.263 2.893 11.22 1.805 29.063-12.131 39.96z" clip-rule="evenodd" fill="#000" fill-opacity=".04" fill-rule="evenodd"/><path d="M13.777 13.198c-.18.066-.326.182-.429.328s-.16.322-.16.508v24.938c-.041 9.18 3.104 17.777 8.518 24.633 5.414 6.854 13.095 11.967 22.56 14.177 9.031-2.21 16.713-7.322 22.127-14.177 5.414-6.855 8.56-15.454 8.518-24.633V14.043a.886.886 0 0 0-.586-.843L44.395 2.134a1.102 1.102 0 0 0-.69 0L13.776 13.199z" clip-rule="evenodd" fill="#fff" fill-rule="evenodd"/><mask id="b" fill="#fff"><path d="M13.903 13.166a.897.897 0 0 0-.427.328.883.883 0 0 0-.16.51V38.97c-.04 9.19 3.091 17.798 8.483 24.662 5.39 6.862 13.04 11.981 22.463 14.194a40.162 40.162 0 0 0 22.033-14.194c5.392-6.864 8.523-15.472 8.482-24.662V14.011a.89.89 0 0 0-.583-.844L44.39 2.087a1.092 1.092 0 0 0-.687 0l-29.8 11.079z" clip-rule="evenodd" fill-rule="evenodd"/></mask><path d="M13.903 13.166a.897.897 0 0 0-.427.328.883.883 0 0 0-.16.51V38.97c-.04 9.19 3.091 17.798 8.483 24.662 5.39 6.862 13.04 11.981 22.463 14.194a40.162 40.162 0 0 0 22.033-14.194c5.392-6.864 8.523-15.472 8.482-24.662V14.011a.89.89 0 0 0-.583-.844L44.39 2.087a1.092 1.092 0 0 0-.687 0l-29.8 11.079z" clip-rule="evenodd" fill="#FFE600" fill-rule="evenodd" mask="url(#b)" stroke="#fff" stroke-width="6"/><path d="M13.207 13.998a.884.884 0 0 1 .586-.832l29.8-11.078a1.09 1.09 0 0 1 .687 0l29.804 11.08a.894.894 0 0 1 .583.844V35.25m-61.46-21.252v.455m0-.455V18m0 4v16.97c-.042 9.19 3.09 17.798 8.482 24.662 5.39 6.862 13.04 11.981 22.463 14.194a40.162 40.162 0 0 0 22.033-14.194 39.61 39.61 0 0 0 8.19-19.674m.292-5.542v.554c.003.61-.009 1.217-.034 1.822" stroke="#333" stroke-width="1.5"/><ellipse cx="43.999" cy="32.875" rx="14.308" ry="14.25" fill="#fff" stroke="#333" stroke-width="1.5"/><path d="m36.117 33.186 5.005 4.99L51.76 27.572M88 79.022H1" stroke="#333" stroke-width="1.5"/></g><defs><clipPath id="a"><path fill="#fff" d="M0 0h89v81H0z"/></clipPath></defs></svg>